<?xml version="1.0" encoding="UTF-8" standalone="no"?>
<!DOCTYPE svg PUBLIC "-//W3C//DTD SVG 1.1//EN"
 "http://www.w3.org/Graphics/SVG/1.1/DTD/svg11.dtd">
<!-- Generated by graphviz version 2.43.0 (0)
 -->
<!-- Title: %3 Pages: 1 -->
<svg width="2215pt" height="136pt"
 viewBox="0.00 0.00 2215.00 136.00" xmlns="http://www.w3.org/2000/svg" xmlns:xlink="http://www.w3.org/1999/xlink">
<g id="graph0" class="graph" transform="scale(1 1) rotate(0) translate(4 132)">
<title>%3</title>
<polygon fill="white" stroke="transparent" points="-4,4 -4,-132 2211,-132 2211,4 -4,4"/>
<!-- 134427580440944 -->
<g id="node1" class="node">
<title>134427580440944</title>
<ellipse fill="green" stroke="black" cx="18" cy="-83" rx="18" ry="18"/>
</g>
<!-- 134427580260720 -->
<g id="node2" class="node">
<title>134427580260720</title>
<polygon fill="none" stroke="black" points="242,-101 72,-101 72,-65 242,-65 242,-101"/>
<text text-anchor="middle" x="157" y="-79.9" font-family="Times,serif" font-size="12.00">Receive customer inquiry</text>
</g>
<!-- 134427580440944&#45;&gt;134427580260720 -->
<g id="edge1" class="edge">
<title>134427580440944&#45;&gt;134427580260720</title>
<path fill="none" stroke="black" d="M36.07,-83C43.15,-83 51.96,-83 61.57,-83"/>
<polygon fill="black" stroke="black" points="61.83,-86.5 71.83,-83 61.83,-79.5 61.83,-86.5"/>
</g>
<!-- 134427580263456 -->
<g id="node3" class="node">
<title>134427580263456</title>
<polygon fill="none" stroke="black" points="305,-101 278,-83 305,-65 332,-83 305,-101"/>
<text text-anchor="middle" x="305" y="-79.9" font-family="Times,serif" font-size="12.00">+</text>
</g>
<!-- 134427580260720&#45;&gt;134427580263456 -->
<g id="edge2" class="edge">
<title>134427580260720&#45;&gt;134427580263456</title>
<path fill="none" stroke="black" d="M242.08,-83C250.97,-83 259.64,-83 267.54,-83"/>
<polygon fill="black" stroke="black" points="267.78,-86.5 277.78,-83 267.78,-79.5 267.78,-86.5"/>
</g>
<!-- 134427580268352 -->
<g id="node4" class="node">
<title>134427580268352</title>
<polygon fill="none" stroke="black" points="630,-128 368,-128 368,-92 630,-92 630,-128"/>
<text text-anchor="middle" x="499" y="-106.9" font-family="Times,serif" font-size="12.00">Address customer concerns or questions</text>
</g>
<!-- 134427580263456&#45;&gt;134427580268352 -->
<g id="edge3" class="edge">
<title>134427580263456&#45;&gt;134427580268352</title>
<path fill="none" stroke="black" d="M327.65,-86.04C336.55,-87.3 347.65,-88.86 359.88,-90.58"/>
<polygon fill="black" stroke="black" points="359.53,-94.06 369.92,-91.99 360.5,-87.13 359.53,-94.06"/>
</g>
<!-- 134427580266192 -->
<g id="node5" class="node">
<title>134427580266192</title>
<polygon fill="none" stroke="black" points="596,-74 402,-74 402,-38 596,-38 596,-74"/>
<text text-anchor="middle" x="499" y="-52.9" font-family="Times,serif" font-size="12.00">Collect customer information</text>
</g>
<!-- 134427580263456&#45;&gt;134427580266192 -->
<g id="edge4" class="edge">
<title>134427580263456&#45;&gt;134427580266192</title>
<path fill="none" stroke="black" d="M327.65,-79.96C343.86,-77.68 367.34,-74.37 391.73,-70.94"/>
<polygon fill="black" stroke="black" points="392.42,-74.38 401.84,-69.52 391.45,-67.45 392.42,-74.38"/>
</g>
<!-- 134427580257408 -->
<g id="node6" class="node">
<title>134427580257408</title>
<polygon fill="none" stroke="black" points="693,-101 666,-83 693,-65 720,-83 693,-101"/>
<text text-anchor="middle" x="693" y="-79.9" font-family="Times,serif" font-size="12.00">+</text>
</g>
<!-- 134427580268352&#45;&gt;134427580257408 -->
<g id="edge5" class="edge">
<title>134427580268352&#45;&gt;134427580257408</title>
<path fill="none" stroke="black" d="M628.07,-91.99C639.86,-90.33 650.93,-88.78 660.43,-87.44"/>
<polygon fill="black" stroke="black" points="661.03,-90.89 670.45,-86.03 660.06,-83.96 661.03,-90.89"/>
</g>
<!-- 134427580266192&#45;&gt;134427580257408 -->
<g id="edge6" class="edge">
<title>134427580266192&#45;&gt;134427580257408</title>
<path fill="none" stroke="black" d="M596,-69.5C619.24,-72.77 642.49,-76.04 660.28,-78.54"/>
<polygon fill="black" stroke="black" points="659.96,-82.03 670.35,-79.96 660.93,-75.1 659.96,-82.03"/>
</g>
<!-- 134427581540784 -->
<g id="node7" class="node">
<title>134427581540784</title>
<polygon fill="none" stroke="black" points="783,-101 756,-83 783,-65 810,-83 783,-101"/>
<text text-anchor="middle" x="783" y="-79.9" font-family="Times,serif" font-size="12.00">X</text>
</g>
<!-- 134427580257408&#45;&gt;134427581540784 -->
<g id="edge7" class="edge">
<title>134427580257408&#45;&gt;134427581540784</title>
<path fill="none" stroke="black" d="M720.4,-83C728.39,-83 737.31,-83 745.82,-83"/>
<polygon fill="black" stroke="black" points="745.92,-86.5 755.92,-83 745.92,-79.5 745.92,-86.5"/>
</g>
<!-- 134427581538384 -->
<g id="node8" class="node">
<title>134427581538384</title>
<polygon fill="none" stroke="black" points="2108,-101 2081,-83 2108,-65 2135,-83 2108,-101"/>
<text text-anchor="middle" x="2108" y="-79.9" font-family="Times,serif" font-size="12.00">X</text>
</g>
<!-- 134427581540784&#45;&gt;134427581538384 -->
<g id="edge8" class="edge">
<title>134427581540784&#45;&gt;134427581538384</title>
<path fill="none" stroke="black" d="M807.06,-85.08C871.83,-90.74 1061,-106 1218.5,-106 1218.5,-106 1218.5,-106 1835,-106 1922.38,-106 2024.99,-94.07 2075.57,-87.39"/>
<polygon fill="black" stroke="black" points="2076.1,-90.85 2085.54,-86.05 2075.17,-83.92 2076.1,-90.85"/>
</g>
<!-- 134427581538000 -->
<g id="node9" class="node">
<title>134427581538000</title>
<polygon fill="none" stroke="black" points="1133,-78 846,-78 846,-42 1133,-42 1133,-78"/>
<text text-anchor="middle" x="989.5" y="-56.9" font-family="Times,serif" font-size="12.00">Provide detailed product/service explanation</text>
</g>
<!-- 134427581540784&#45;&gt;134427581538000 -->
<g id="edge9" class="edge">
<title>134427581540784&#45;&gt;134427581538000</title>
<path fill="none" stroke="black" d="M806.27,-80.49C814.52,-79.57 824.61,-78.43 835.78,-77.18"/>
<polygon fill="black" stroke="black" points="836.3,-80.64 845.84,-76.04 835.51,-73.68 836.3,-80.64"/>
</g>
<!-- 134427580264560 -->
<g id="node16" class="node">
<title>134427580264560</title>
<ellipse fill="orange" stroke="black" cx="2189" cy="-83" rx="18" ry="18"/>
</g>
<!-- 134427581538384&#45;&gt;134427580264560 -->
<g id="edge11" class="edge">
<title>134427581538384&#45;&gt;134427580264560</title>
<path fill="none" stroke="black" d="M2135.31,-83C2143.42,-83 2152.37,-83 2160.56,-83"/>
<polygon fill="black" stroke="black" points="2160.75,-86.5 2170.75,-83 2160.75,-79.5 2160.75,-86.5"/>
</g>
<!-- 134427581536368 -->
<g id="node10" class="node">
<title>134427581536368</title>
<polygon fill="none" stroke="black" points="1270,-78 1169,-78 1169,-42 1270,-42 1270,-78"/>
<text text-anchor="middle" x="1219.5" y="-56.9" font-family="Times,serif" font-size="12.00">Provide quote</text>
</g>
<!-- 134427581538000&#45;&gt;134427581536368 -->
<g id="edge10" class="edge">
<title>134427581538000&#45;&gt;134427581536368</title>
<path fill="none" stroke="black" d="M1133.28,-60C1142.01,-60 1150.51,-60 1158.54,-60"/>
<polygon fill="black" stroke="black" points="1158.81,-63.5 1168.81,-60 1158.81,-56.5 1158.81,-63.5"/>
</g>
<!-- 134427581531328 -->
<g id="node11" class="node">
<title>134427581531328</title>
<polygon fill="none" stroke="black" points="1333,-78 1306,-60 1333,-42 1360,-60 1333,-78"/>
<text text-anchor="middle" x="1333" y="-56.9" font-family="Times,serif" font-size="12.00">X</text>
</g>
<!-- 134427581536368&#45;&gt;134427581531328 -->
<g id="edge12" class="edge">
<title>134427581536368&#45;&gt;134427581531328</title>
<path fill="none" stroke="black" d="M1270.05,-60C1278.72,-60 1287.6,-60 1295.82,-60"/>
<polygon fill="black" stroke="black" points="1295.82,-63.5 1305.82,-60 1295.82,-56.5 1295.82,-63.5"/>
</g>
<!-- 134427581534784 -->
<g id="node12" class="node">
<title>134427581534784</title>
<polygon fill="none" stroke="black" points="2018,-78 1991,-60 2018,-42 2045,-60 2018,-78"/>
<text text-anchor="middle" x="2018" y="-56.9" font-family="Times,serif" font-size="12.00">X</text>
</g>
<!-- 134427581531328&#45;&gt;134427581534784 -->
<g id="edge13" class="edge">
<title>134427581531328&#45;&gt;134427581534784</title>
<path fill="none" stroke="black" d="M1360.36,-60C1465.9,-60 1858.2,-60 1980.41,-60"/>
<polygon fill="black" stroke="black" points="1980.72,-63.5 1990.72,-60 1980.72,-56.5 1980.72,-63.5"/>
</g>
<!-- 134427723479312 -->
<g id="node13" class="node">
<title>134427723479312</title>
<polygon fill="none" stroke="black" points="1483,-36 1396,-36 1396,0 1483,0 1483,-36"/>
<text text-anchor="middle" x="1439.5" y="-14.9" font-family="Times,serif" font-size="12.00">Place order</text>
</g>
<!-- 134427581531328&#45;&gt;134427723479312 -->
<g id="edge14" class="edge">
<title>134427581531328&#45;&gt;134427723479312</title>
<path fill="none" stroke="black" d="M1350.33,-53.44C1360.12,-49.5 1373.18,-44.25 1386.23,-39.01"/>
<polygon fill="black" stroke="black" points="1387.72,-42.18 1395.69,-35.2 1385.11,-35.69 1387.72,-42.18"/>
</g>
<!-- 134427581534784&#45;&gt;134427581538384 -->
<g id="edge15" class="edge">
<title>134427581534784&#45;&gt;134427581538384</title>
<path fill="none" stroke="black" d="M2038.09,-64.99C2049.82,-68.06 2065.07,-72.04 2078.24,-75.48"/>
<polygon fill="black" stroke="black" points="2077.68,-78.96 2088.24,-78.1 2079.45,-72.18 2077.68,-78.96"/>
</g>
<!-- 134427723465584 -->
<g id="node14" class="node">
<title>134427723465584</title>
<polygon fill="none" stroke="black" points="1677,-36 1519,-36 1519,0 1677,0 1677,-36"/>
<text text-anchor="middle" x="1598" y="-14.9" font-family="Times,serif" font-size="12.00">Record order in system</text>
</g>
<!-- 134427723479312&#45;&gt;134427723465584 -->
<g id="edge16" class="edge">
<title>134427723479312&#45;&gt;134427723465584</title>
<path fill="none" stroke="black" d="M1483.26,-18C1491.29,-18 1499.94,-18 1508.77,-18"/>
<polygon fill="black" stroke="black" points="1508.78,-21.5 1518.78,-18 1508.78,-14.5 1508.78,-21.5"/>
</g>
<!-- 134427723469088 -->
<g id="node15" class="node">
<title>134427723469088</title>
<polygon fill="none" stroke="black" points="1955,-36 1713,-36 1713,0 1955,0 1955,-36"/>
<text text-anchor="middle" x="1834" y="-14.9" font-family="Times,serif" font-size="12.00">Send order confirmation to customer</text>
</g>
<!-- 134427723465584&#45;&gt;134427723469088 -->
<g id="edge17" class="edge">
<title>134427723465584&#45;&gt;134427723469088</title>
<path fill="none" stroke="black" d="M1677.24,-18C1685.46,-18 1693.96,-18 1702.55,-18"/>
<polygon fill="black" stroke="black" points="1702.68,-21.5 1712.68,-18 1702.68,-14.5 1702.68,-21.5"/>
</g>
<!-- 134427723469088&#45;&gt;134427581534784 -->
<g id="edge18" class="edge">
<title>134427723469088&#45;&gt;134427581534784</title>
<path fill="none" stroke="black" d="M1913.24,-36.06C1939.66,-42.15 1967.54,-48.59 1987.74,-53.25"/>
<polygon fill="black" stroke="black" points="1987.02,-56.67 1997.56,-55.51 1988.6,-49.85 1987.02,-56.67"/>
</g>
</g>
</svg>
