<?xml version="1.0" encoding="UTF-8" standalone="no"?>
<!DOCTYPE svg PUBLIC "-//W3C//DTD SVG 1.1//EN"
 "http://www.w3.org/Graphics/SVG/1.1/DTD/svg11.dtd">
<!-- Generated by graphviz version 2.43.0 (0)
 -->
<!-- Title: %3 Pages: 1 -->
<svg width="2212pt" height="136pt"
 viewBox="0.00 0.00 2212.00 136.00" xmlns="http://www.w3.org/2000/svg" xmlns:xlink="http://www.w3.org/1999/xlink">
<g id="graph0" class="graph" transform="scale(1 1) rotate(0) translate(4 132)">
<title>%3</title>
<polygon fill="white" stroke="transparent" points="-4,4 -4,-132 2208,-132 2208,4 -4,4"/>
<!-- 134427581542368 -->
<g id="node1" class="node">
<title>134427581542368</title>
<ellipse fill="green" stroke="black" cx="18" cy="-83" rx="18" ry="18"/>
</g>
<!-- 134427581545728 -->
<g id="node2" class="node">
<title>134427581545728</title>
<polygon fill="none" stroke="black" points="242,-101 72,-101 72,-65 242,-65 242,-101"/>
<text text-anchor="middle" x="157" y="-79.9" font-family="Times,serif" font-size="12.00">Receive customer inquiry</text>
</g>
<!-- 134427581542368&#45;&gt;134427581545728 -->
<g id="edge1" class="edge">
<title>134427581542368&#45;&gt;134427581545728</title>
<path fill="none" stroke="black" d="M36.07,-83C43.15,-83 51.96,-83 61.57,-83"/>
<polygon fill="black" stroke="black" points="61.83,-86.5 71.83,-83 61.83,-79.5 61.83,-86.5"/>
</g>
<!-- 134427581545008 -->
<g id="node3" class="node">
<title>134427581545008</title>
<polygon fill="none" stroke="black" points="305,-101 278,-83 305,-65 332,-83 305,-101"/>
<text text-anchor="middle" x="305" y="-79.9" font-family="Times,serif" font-size="12.00">+</text>
</g>
<!-- 134427581545728&#45;&gt;134427581545008 -->
<g id="edge2" class="edge">
<title>134427581545728&#45;&gt;134427581545008</title>
<path fill="none" stroke="black" d="M242.08,-83C250.97,-83 259.64,-83 267.54,-83"/>
<polygon fill="black" stroke="black" points="267.78,-86.5 277.78,-83 267.78,-79.5 267.78,-86.5"/>
</g>
<!-- 134427581537472 -->
<g id="node4" class="node">
<title>134427581537472</title>
<polygon fill="none" stroke="black" points="630,-128 368,-128 368,-92 630,-92 630,-128"/>
<text text-anchor="middle" x="499" y="-106.9" font-family="Times,serif" font-size="12.00">Address customer concerns or questions</text>
</g>
<!-- 134427581545008&#45;&gt;134427581537472 -->
<g id="edge3" class="edge">
<title>134427581545008&#45;&gt;134427581537472</title>
<path fill="none" stroke="black" d="M327.65,-86.04C336.55,-87.3 347.65,-88.86 359.88,-90.58"/>
<polygon fill="black" stroke="black" points="359.53,-94.06 369.92,-91.99 360.5,-87.13 359.53,-94.06"/>
</g>
<!-- 134427581531664 -->
<g id="node5" class="node">
<title>134427581531664</title>
<polygon fill="none" stroke="black" points="596,-74 402,-74 402,-38 596,-38 596,-74"/>
<text text-anchor="middle" x="499" y="-52.9" font-family="Times,serif" font-size="12.00">Collect customer information</text>
</g>
<!-- 134427581545008&#45;&gt;134427581531664 -->
<g id="edge4" class="edge">
<title>134427581545008&#45;&gt;134427581531664</title>
<path fill="none" stroke="black" d="M327.65,-79.96C343.86,-77.68 367.34,-74.37 391.73,-70.94"/>
<polygon fill="black" stroke="black" points="392.42,-74.38 401.84,-69.52 391.45,-67.45 392.42,-74.38"/>
</g>
<!-- 134427581530848 -->
<g id="node6" class="node">
<title>134427581530848</title>
<polygon fill="none" stroke="black" points="693,-101 666,-83 693,-65 720,-83 693,-101"/>
<text text-anchor="middle" x="693" y="-79.9" font-family="Times,serif" font-size="12.00">+</text>
</g>
<!-- 134427581537472&#45;&gt;134427581530848 -->
<g id="edge5" class="edge">
<title>134427581537472&#45;&gt;134427581530848</title>
<path fill="none" stroke="black" d="M628.07,-91.99C639.86,-90.33 650.93,-88.78 660.43,-87.44"/>
<polygon fill="black" stroke="black" points="661.03,-90.89 670.45,-86.03 660.06,-83.96 661.03,-90.89"/>
</g>
<!-- 134427581531664&#45;&gt;134427581530848 -->
<g id="edge6" class="edge">
<title>134427581531664&#45;&gt;134427581530848</title>
<path fill="none" stroke="black" d="M596,-69.5C619.24,-72.77 642.49,-76.04 660.28,-78.54"/>
<polygon fill="black" stroke="black" points="659.96,-82.03 670.35,-79.96 660.93,-75.1 659.96,-82.03"/>
</g>
<!-- 134427581544480 -->
<g id="node7" class="node">
<title>134427581544480</title>
<polygon fill="none" stroke="black" points="783,-101 756,-83 783,-65 810,-83 783,-101"/>
<text text-anchor="middle" x="783" y="-79.9" font-family="Times,serif" font-size="12.00">X</text>
</g>
<!-- 134427581530848&#45;&gt;134427581544480 -->
<g id="edge7" class="edge">
<title>134427581530848&#45;&gt;134427581544480</title>
<path fill="none" stroke="black" d="M720.4,-83C728.39,-83 737.31,-83 745.82,-83"/>
<polygon fill="black" stroke="black" points="745.92,-86.5 755.92,-83 745.92,-79.5 745.92,-86.5"/>
</g>
<!-- 134427581541600 -->
<g id="node8" class="node">
<title>134427581541600</title>
<polygon fill="none" stroke="black" points="2105,-101 2078,-83 2105,-65 2132,-83 2105,-101"/>
<text text-anchor="middle" x="2105" y="-79.9" font-family="Times,serif" font-size="12.00">X</text>
</g>
<!-- 134427581544480&#45;&gt;134427581541600 -->
<g id="edge8" class="edge">
<title>134427581544480&#45;&gt;134427581541600</title>
<path fill="none" stroke="black" d="M806.9,-85.08C871.23,-90.74 1059.08,-106 1215.5,-106 1215.5,-106 1215.5,-106 1832,-106 1919.38,-106 2021.99,-94.07 2072.57,-87.39"/>
<polygon fill="black" stroke="black" points="2073.1,-90.85 2082.54,-86.05 2072.17,-83.92 2073.1,-90.85"/>
</g>
<!-- 134427581542992 -->
<g id="node9" class="node">
<title>134427581542992</title>
<polygon fill="none" stroke="black" points="1130,-78 846,-78 846,-42 1130,-42 1130,-78"/>
<text text-anchor="middle" x="988" y="-56.9" font-family="Times,serif" font-size="12.00">Provide Product/Service Selection Guidance</text>
</g>
<!-- 134427581544480&#45;&gt;134427581542992 -->
<g id="edge9" class="edge">
<title>134427581544480&#45;&gt;134427581542992</title>
<path fill="none" stroke="black" d="M806.5,-80.45C814.72,-79.52 824.76,-78.38 835.84,-77.13"/>
<polygon fill="black" stroke="black" points="836.29,-80.6 845.83,-75.99 835.5,-73.64 836.29,-80.6"/>
</g>
<!-- 134427581535360 -->
<g id="node16" class="node">
<title>134427581535360</title>
<ellipse fill="orange" stroke="black" cx="2186" cy="-83" rx="18" ry="18"/>
</g>
<!-- 134427581541600&#45;&gt;134427581535360 -->
<g id="edge11" class="edge">
<title>134427581541600&#45;&gt;134427581535360</title>
<path fill="none" stroke="black" d="M2132.31,-83C2140.42,-83 2149.37,-83 2157.56,-83"/>
<polygon fill="black" stroke="black" points="2157.75,-86.5 2167.75,-83 2157.75,-79.5 2157.75,-86.5"/>
</g>
<!-- 134427581542560 -->
<g id="node10" class="node">
<title>134427581542560</title>
<polygon fill="none" stroke="black" points="1267,-78 1166,-78 1166,-42 1267,-42 1267,-78"/>
<text text-anchor="middle" x="1216.5" y="-56.9" font-family="Times,serif" font-size="12.00">Provide quote</text>
</g>
<!-- 134427581542992&#45;&gt;134427581542560 -->
<g id="edge10" class="edge">
<title>134427581542992&#45;&gt;134427581542560</title>
<path fill="none" stroke="black" d="M1130.19,-60C1139.02,-60 1147.61,-60 1155.72,-60"/>
<polygon fill="black" stroke="black" points="1155.73,-63.5 1165.73,-60 1155.73,-56.5 1155.73,-63.5"/>
</g>
<!-- 134427581545440 -->
<g id="node11" class="node">
<title>134427581545440</title>
<polygon fill="none" stroke="black" points="1330,-78 1303,-60 1330,-42 1357,-60 1330,-78"/>
<text text-anchor="middle" x="1330" y="-56.9" font-family="Times,serif" font-size="12.00">X</text>
</g>
<!-- 134427581542560&#45;&gt;134427581545440 -->
<g id="edge12" class="edge">
<title>134427581542560&#45;&gt;134427581545440</title>
<path fill="none" stroke="black" d="M1267.05,-60C1275.72,-60 1284.6,-60 1292.82,-60"/>
<polygon fill="black" stroke="black" points="1292.82,-63.5 1302.82,-60 1292.82,-56.5 1292.82,-63.5"/>
</g>
<!-- 134427581537760 -->
<g id="node12" class="node">
<title>134427581537760</title>
<polygon fill="none" stroke="black" points="2015,-78 1988,-60 2015,-42 2042,-60 2015,-78"/>
<text text-anchor="middle" x="2015" y="-56.9" font-family="Times,serif" font-size="12.00">X</text>
</g>
<!-- 134427581545440&#45;&gt;134427581537760 -->
<g id="edge13" class="edge">
<title>134427581545440&#45;&gt;134427581537760</title>
<path fill="none" stroke="black" d="M1357.36,-60C1462.9,-60 1855.2,-60 1977.41,-60"/>
<polygon fill="black" stroke="black" points="1977.72,-63.5 1987.72,-60 1977.72,-56.5 1977.72,-63.5"/>
</g>
<!-- 134427579554912 -->
<g id="node13" class="node">
<title>134427579554912</title>
<polygon fill="none" stroke="black" points="1480,-36 1393,-36 1393,0 1480,0 1480,-36"/>
<text text-anchor="middle" x="1436.5" y="-14.9" font-family="Times,serif" font-size="12.00">Place order</text>
</g>
<!-- 134427581545440&#45;&gt;134427579554912 -->
<g id="edge14" class="edge">
<title>134427581545440&#45;&gt;134427579554912</title>
<path fill="none" stroke="black" d="M1347.33,-53.44C1357.12,-49.5 1370.18,-44.25 1383.23,-39.01"/>
<polygon fill="black" stroke="black" points="1384.72,-42.18 1392.69,-35.2 1382.11,-35.69 1384.72,-42.18"/>
</g>
<!-- 134427581537760&#45;&gt;134427581541600 -->
<g id="edge15" class="edge">
<title>134427581537760&#45;&gt;134427581541600</title>
<path fill="none" stroke="black" d="M2035.09,-64.99C2046.82,-68.06 2062.07,-72.04 2075.24,-75.48"/>
<polygon fill="black" stroke="black" points="2074.68,-78.96 2085.24,-78.1 2076.45,-72.18 2074.68,-78.96"/>
</g>
<!-- 134427579557936 -->
<g id="node14" class="node">
<title>134427579557936</title>
<polygon fill="none" stroke="black" points="1674,-36 1516,-36 1516,0 1674,0 1674,-36"/>
<text text-anchor="middle" x="1595" y="-14.9" font-family="Times,serif" font-size="12.00">Record order in system</text>
</g>
<!-- 134427579554912&#45;&gt;134427579557936 -->
<g id="edge16" class="edge">
<title>134427579554912&#45;&gt;134427579557936</title>
<path fill="none" stroke="black" d="M1480.26,-18C1488.29,-18 1496.94,-18 1505.77,-18"/>
<polygon fill="black" stroke="black" points="1505.78,-21.5 1515.78,-18 1505.78,-14.5 1505.78,-21.5"/>
</g>
<!-- 134427579555104 -->
<g id="node15" class="node">
<title>134427579555104</title>
<polygon fill="none" stroke="black" points="1952,-36 1710,-36 1710,0 1952,0 1952,-36"/>
<text text-anchor="middle" x="1831" y="-14.9" font-family="Times,serif" font-size="12.00">Send order confirmation to customer</text>
</g>
<!-- 134427579557936&#45;&gt;134427579555104 -->
<g id="edge17" class="edge">
<title>134427579557936&#45;&gt;134427579555104</title>
<path fill="none" stroke="black" d="M1674.24,-18C1682.46,-18 1690.96,-18 1699.55,-18"/>
<polygon fill="black" stroke="black" points="1699.68,-21.5 1709.68,-18 1699.68,-14.5 1699.68,-21.5"/>
</g>
<!-- 134427579555104&#45;&gt;134427581537760 -->
<g id="edge18" class="edge">
<title>134427579555104&#45;&gt;134427581537760</title>
<path fill="none" stroke="black" d="M1910.24,-36.06C1936.66,-42.15 1964.54,-48.59 1984.74,-53.25"/>
<polygon fill="black" stroke="black" points="1984.02,-56.67 1994.56,-55.51 1985.6,-49.85 1984.02,-56.67"/>
</g>
</g>
</svg>
