<?xml version="1.0" encoding="UTF-8" standalone="no"?>
<!DOCTYPE svg PUBLIC "-//W3C//DTD SVG 1.1//EN"
 "http://www.w3.org/Graphics/SVG/1.1/DTD/svg11.dtd">
<!-- Generated by graphviz version 2.43.0 (0)
 -->
<!-- Title: %3 Pages: 1 -->
<svg width="2147pt" height="136pt"
 viewBox="0.00 0.00 2147.00 136.00" xmlns="http://www.w3.org/2000/svg" xmlns:xlink="http://www.w3.org/1999/xlink">
<g id="graph0" class="graph" transform="scale(1 1) rotate(0) translate(4 132)">
<title>%3</title>
<polygon fill="white" stroke="transparent" points="-4,4 -4,-132 2143,-132 2143,4 -4,4"/>
<!-- 134427578087648 -->
<g id="node1" class="node">
<title>134427578087648</title>
<ellipse fill="green" stroke="black" cx="18" cy="-83" rx="18" ry="18"/>
</g>
<!-- 134427578083280 -->
<g id="node2" class="node">
<title>134427578083280</title>
<polygon fill="none" stroke="black" points="242,-101 72,-101 72,-65 242,-65 242,-101"/>
<text text-anchor="middle" x="157" y="-79.9" font-family="Times,serif" font-size="12.00">Receive customer inquiry</text>
</g>
<!-- 134427578087648&#45;&gt;134427578083280 -->
<g id="edge1" class="edge">
<title>134427578087648&#45;&gt;134427578083280</title>
<path fill="none" stroke="black" d="M36.07,-83C43.15,-83 51.96,-83 61.57,-83"/>
<polygon fill="black" stroke="black" points="61.83,-86.5 71.83,-83 61.83,-79.5 61.83,-86.5"/>
</g>
<!-- 134427578080208 -->
<g id="node3" class="node">
<title>134427578080208</title>
<polygon fill="none" stroke="black" points="305,-101 278,-83 305,-65 332,-83 305,-101"/>
<text text-anchor="middle" x="305" y="-79.9" font-family="Times,serif" font-size="12.00">+</text>
</g>
<!-- 134427578083280&#45;&gt;134427578080208 -->
<g id="edge2" class="edge">
<title>134427578083280&#45;&gt;134427578080208</title>
<path fill="none" stroke="black" d="M242.08,-83C250.97,-83 259.64,-83 267.54,-83"/>
<polygon fill="black" stroke="black" points="267.78,-86.5 277.78,-83 267.78,-79.5 267.78,-86.5"/>
</g>
<!-- 134427578085584 -->
<g id="node4" class="node">
<title>134427578085584</title>
<polygon fill="none" stroke="black" points="596,-128 402,-128 402,-92 596,-92 596,-128"/>
<text text-anchor="middle" x="499" y="-106.9" font-family="Times,serif" font-size="12.00">Collect customer information</text>
</g>
<!-- 134427578080208&#45;&gt;134427578085584 -->
<g id="edge3" class="edge">
<title>134427578080208&#45;&gt;134427578085584</title>
<path fill="none" stroke="black" d="M327.65,-86.04C343.86,-88.32 367.34,-91.63 391.73,-95.06"/>
<polygon fill="black" stroke="black" points="391.45,-98.55 401.84,-96.48 392.42,-91.62 391.45,-98.55"/>
</g>
<!-- 134427578086928 -->
<g id="node5" class="node">
<title>134427578086928</title>
<polygon fill="none" stroke="black" points="630,-74 368,-74 368,-38 630,-38 630,-74"/>
<text text-anchor="middle" x="499" y="-52.9" font-family="Times,serif" font-size="12.00">Address customer concerns or questions</text>
</g>
<!-- 134427578080208&#45;&gt;134427578086928 -->
<g id="edge4" class="edge">
<title>134427578080208&#45;&gt;134427578086928</title>
<path fill="none" stroke="black" d="M327.65,-79.96C336.55,-78.7 347.65,-77.14 359.88,-75.42"/>
<polygon fill="black" stroke="black" points="360.5,-78.87 369.92,-74.01 359.53,-71.94 360.5,-78.87"/>
</g>
<!-- 134427578074496 -->
<g id="node6" class="node">
<title>134427578074496</title>
<polygon fill="none" stroke="black" points="693,-101 666,-83 693,-65 720,-83 693,-101"/>
<text text-anchor="middle" x="693" y="-79.9" font-family="Times,serif" font-size="12.00">+</text>
</g>
<!-- 134427578085584&#45;&gt;134427578074496 -->
<g id="edge5" class="edge">
<title>134427578085584&#45;&gt;134427578074496</title>
<path fill="none" stroke="black" d="M596,-96.5C619.24,-93.23 642.49,-89.96 660.28,-87.46"/>
<polygon fill="black" stroke="black" points="660.93,-90.9 670.35,-86.04 659.96,-83.97 660.93,-90.9"/>
</g>
<!-- 134427578086928&#45;&gt;134427578074496 -->
<g id="edge6" class="edge">
<title>134427578086928&#45;&gt;134427578074496</title>
<path fill="none" stroke="black" d="M628.07,-74.01C639.86,-75.67 650.93,-77.22 660.43,-78.56"/>
<polygon fill="black" stroke="black" points="660.06,-82.04 670.45,-79.97 661.03,-75.11 660.06,-82.04"/>
</g>
<!-- 134427578087888 -->
<g id="node7" class="node">
<title>134427578087888</title>
<polygon fill="none" stroke="black" points="783,-101 756,-83 783,-65 810,-83 783,-101"/>
<text text-anchor="middle" x="783" y="-79.9" font-family="Times,serif" font-size="12.00">X</text>
</g>
<!-- 134427578074496&#45;&gt;134427578087888 -->
<g id="edge7" class="edge">
<title>134427578074496&#45;&gt;134427578087888</title>
<path fill="none" stroke="black" d="M720.4,-83C728.39,-83 737.31,-83 745.82,-83"/>
<polygon fill="black" stroke="black" points="745.92,-86.5 755.92,-83 745.92,-79.5 745.92,-86.5"/>
</g>
<!-- 134427578078000 -->
<g id="node8" class="node">
<title>134427578078000</title>
<polygon fill="none" stroke="black" points="2040,-101 2013,-83 2040,-65 2067,-83 2040,-101"/>
<text text-anchor="middle" x="2040" y="-79.9" font-family="Times,serif" font-size="12.00">X</text>
</g>
<!-- 134427578087888&#45;&gt;134427578078000 -->
<g id="edge8" class="edge">
<title>134427578087888&#45;&gt;134427578078000</title>
<path fill="none" stroke="black" d="M806.7,-85.42C864.17,-91.32 1020.12,-106 1150.5,-106 1150.5,-106 1150.5,-106 1767,-106 1854.38,-106 1956.99,-94.07 2007.57,-87.39"/>
<polygon fill="black" stroke="black" points="2008.1,-90.85 2017.54,-86.05 2007.17,-83.92 2008.1,-90.85"/>
</g>
<!-- 134425784028896 -->
<g id="node9" class="node">
<title>134425784028896</title>
<polygon fill="none" stroke="black" points="1065,-78 846,-78 846,-42 1065,-42 1065,-78"/>
<text text-anchor="middle" x="955.5" y="-56.9" font-family="Times,serif" font-size="12.00">Explain Product/Service Features</text>
</g>
<!-- 134427578087888&#45;&gt;134425784028896 -->
<g id="edge9" class="edge">
<title>134427578087888&#45;&gt;134425784028896</title>
<path fill="none" stroke="black" d="M805.94,-80.04C814.36,-78.9 824.66,-77.51 835.88,-76"/>
<polygon fill="black" stroke="black" points="836.51,-79.45 845.95,-74.64 835.57,-72.51 836.51,-79.45"/>
</g>
<!-- 134427578086496 -->
<g id="node16" class="node">
<title>134427578086496</title>
<ellipse fill="orange" stroke="black" cx="2121" cy="-83" rx="18" ry="18"/>
</g>
<!-- 134427578078000&#45;&gt;134427578086496 -->
<g id="edge11" class="edge">
<title>134427578078000&#45;&gt;134427578086496</title>
<path fill="none" stroke="black" d="M2067.31,-83C2075.42,-83 2084.37,-83 2092.56,-83"/>
<polygon fill="black" stroke="black" points="2092.75,-86.5 2102.75,-83 2092.75,-79.5 2092.75,-86.5"/>
</g>
<!-- 134425784038352 -->
<g id="node10" class="node">
<title>134425784038352</title>
<polygon fill="none" stroke="black" points="1202,-78 1101,-78 1101,-42 1202,-42 1202,-78"/>
<text text-anchor="middle" x="1151.5" y="-56.9" font-family="Times,serif" font-size="12.00">Provide quote</text>
</g>
<!-- 134425784028896&#45;&gt;134425784038352 -->
<g id="edge10" class="edge">
<title>134425784028896&#45;&gt;134425784038352</title>
<path fill="none" stroke="black" d="M1065.13,-60C1073.89,-60 1082.53,-60 1090.75,-60"/>
<polygon fill="black" stroke="black" points="1090.91,-63.5 1100.91,-60 1090.91,-56.5 1090.91,-63.5"/>
</g>
<!-- 134425784039552 -->
<g id="node11" class="node">
<title>134425784039552</title>
<polygon fill="none" stroke="black" points="1265,-78 1238,-60 1265,-42 1292,-60 1265,-78"/>
<text text-anchor="middle" x="1265" y="-56.9" font-family="Times,serif" font-size="12.00">X</text>
</g>
<!-- 134425784038352&#45;&gt;134425784039552 -->
<g id="edge12" class="edge">
<title>134425784038352&#45;&gt;134425784039552</title>
<path fill="none" stroke="black" d="M1202.05,-60C1210.72,-60 1219.6,-60 1227.82,-60"/>
<polygon fill="black" stroke="black" points="1227.82,-63.5 1237.82,-60 1227.82,-56.5 1227.82,-63.5"/>
</g>
<!-- 134425784025632 -->
<g id="node12" class="node">
<title>134425784025632</title>
<polygon fill="none" stroke="black" points="1950,-78 1923,-60 1950,-42 1977,-60 1950,-78"/>
<text text-anchor="middle" x="1950" y="-56.9" font-family="Times,serif" font-size="12.00">X</text>
</g>
<!-- 134425784039552&#45;&gt;134425784025632 -->
<g id="edge13" class="edge">
<title>134425784039552&#45;&gt;134425784025632</title>
<path fill="none" stroke="black" d="M1292.36,-60C1397.9,-60 1790.2,-60 1912.41,-60"/>
<polygon fill="black" stroke="black" points="1912.72,-63.5 1922.72,-60 1912.72,-56.5 1912.72,-63.5"/>
</g>
<!-- 134425784040752 -->
<g id="node13" class="node">
<title>134425784040752</title>
<polygon fill="none" stroke="black" points="1415,-36 1328,-36 1328,0 1415,0 1415,-36"/>
<text text-anchor="middle" x="1371.5" y="-14.9" font-family="Times,serif" font-size="12.00">Place order</text>
</g>
<!-- 134425784039552&#45;&gt;134425784040752 -->
<g id="edge14" class="edge">
<title>134425784039552&#45;&gt;134425784040752</title>
<path fill="none" stroke="black" d="M1282.33,-53.44C1292.12,-49.5 1305.18,-44.25 1318.23,-39.01"/>
<polygon fill="black" stroke="black" points="1319.72,-42.18 1327.69,-35.2 1317.11,-35.69 1319.72,-42.18"/>
</g>
<!-- 134425784025632&#45;&gt;134427578078000 -->
<g id="edge15" class="edge">
<title>134425784025632&#45;&gt;134427578078000</title>
<path fill="none" stroke="black" d="M1970.09,-64.99C1981.82,-68.06 1997.07,-72.04 2010.24,-75.48"/>
<polygon fill="black" stroke="black" points="2009.68,-78.96 2020.24,-78.1 2011.45,-72.18 2009.68,-78.96"/>
</g>
<!-- 134425784041040 -->
<g id="node14" class="node">
<title>134425784041040</title>
<polygon fill="none" stroke="black" points="1609,-36 1451,-36 1451,0 1609,0 1609,-36"/>
<text text-anchor="middle" x="1530" y="-14.9" font-family="Times,serif" font-size="12.00">Record order in system</text>
</g>
<!-- 134425784040752&#45;&gt;134425784041040 -->
<g id="edge16" class="edge">
<title>134425784040752&#45;&gt;134425784041040</title>
<path fill="none" stroke="black" d="M1415.26,-18C1423.29,-18 1431.94,-18 1440.77,-18"/>
<polygon fill="black" stroke="black" points="1440.78,-21.5 1450.78,-18 1440.78,-14.5 1440.78,-21.5"/>
</g>
<!-- 134425784032304 -->
<g id="node15" class="node">
<title>134425784032304</title>
<polygon fill="none" stroke="black" points="1887,-36 1645,-36 1645,0 1887,0 1887,-36"/>
<text text-anchor="middle" x="1766" y="-14.9" font-family="Times,serif" font-size="12.00">Send order confirmation to customer</text>
</g>
<!-- 134425784041040&#45;&gt;134425784032304 -->
<g id="edge17" class="edge">
<title>134425784041040&#45;&gt;134425784032304</title>
<path fill="none" stroke="black" d="M1609.24,-18C1617.46,-18 1625.96,-18 1634.55,-18"/>
<polygon fill="black" stroke="black" points="1634.68,-21.5 1644.68,-18 1634.68,-14.5 1634.68,-21.5"/>
</g>
<!-- 134425784032304&#45;&gt;134425784025632 -->
<g id="edge18" class="edge">
<title>134425784032304&#45;&gt;134425784025632</title>
<path fill="none" stroke="black" d="M1845.24,-36.06C1871.66,-42.15 1899.54,-48.59 1919.74,-53.25"/>
<polygon fill="black" stroke="black" points="1919.02,-56.67 1929.56,-55.51 1920.6,-49.85 1919.02,-56.67"/>
</g>
</g>
</svg>
