<?xml version="1.0" encoding="UTF-8" standalone="no"?>
<!DOCTYPE svg PUBLIC "-//W3C//DTD SVG 1.1//EN"
 "http://www.w3.org/Graphics/SVG/1.1/DTD/svg11.dtd">
<!-- Generated by graphviz version 2.43.0 (0)
 -->
<!-- Title: %3 Pages: 1 -->
<svg width="2188pt" height="176pt"
 viewBox="0.00 0.00 2188.00 176.00" xmlns="http://www.w3.org/2000/svg" xmlns:xlink="http://www.w3.org/1999/xlink">
<g id="graph0" class="graph" transform="scale(1 1) rotate(0) translate(4 172)">
<title>%3</title>
<polygon fill="white" stroke="transparent" points="-4,4 -4,-172 2184,-172 2184,4 -4,4"/>
<!-- 134427579554960 -->
<g id="node1" class="node">
<title>134427579554960</title>
<ellipse fill="green" stroke="black" cx="18" cy="-86" rx="18" ry="18"/>
</g>
<!-- 134427579550448 -->
<g id="node2" class="node">
<title>134427579550448</title>
<polygon fill="none" stroke="black" points="242,-104 72,-104 72,-68 242,-68 242,-104"/>
<text text-anchor="middle" x="157" y="-82.9" font-family="Times,serif" font-size="12.00">Receive customer inquiry</text>
</g>
<!-- 134427579554960&#45;&gt;134427579550448 -->
<g id="edge1" class="edge">
<title>134427579554960&#45;&gt;134427579550448</title>
<path fill="none" stroke="black" d="M36.07,-86C43.15,-86 51.96,-86 61.57,-86"/>
<polygon fill="black" stroke="black" points="61.83,-89.5 71.83,-86 61.83,-82.5 61.83,-89.5"/>
</g>
<!-- 134427579558992 -->
<g id="node3" class="node">
<title>134427579558992</title>
<polygon fill="none" stroke="black" points="305,-104 278,-86 305,-68 332,-86 305,-104"/>
<text text-anchor="middle" x="305" y="-82.9" font-family="Times,serif" font-size="12.00">X</text>
</g>
<!-- 134427579550448&#45;&gt;134427579558992 -->
<g id="edge2" class="edge">
<title>134427579550448&#45;&gt;134427579558992</title>
<path fill="none" stroke="black" d="M242.08,-86C250.97,-86 259.64,-86 267.54,-86"/>
<polygon fill="black" stroke="black" points="267.78,-89.5 277.78,-86 267.78,-82.5 267.78,-89.5"/>
</g>
<!-- 134427579550832 -->
<g id="node4" class="node">
<title>134427579550832</title>
<polygon fill="none" stroke="black" points="596,-131 402,-131 402,-95 596,-95 596,-131"/>
<text text-anchor="middle" x="499" y="-109.9" font-family="Times,serif" font-size="12.00">Collect customer information</text>
</g>
<!-- 134427579558992&#45;&gt;134427579550832 -->
<g id="edge3" class="edge">
<title>134427579558992&#45;&gt;134427579550832</title>
<path fill="none" stroke="black" d="M327.65,-89.04C343.86,-91.32 367.34,-94.63 391.73,-98.06"/>
<polygon fill="black" stroke="black" points="391.45,-101.55 401.84,-99.48 392.42,-94.62 391.45,-101.55"/>
</g>
<!-- 134427579553664 -->
<g id="node5" class="node">
<title>134427579553664</title>
<polygon fill="none" stroke="black" points="630,-77 368,-77 368,-41 630,-41 630,-77"/>
<text text-anchor="middle" x="499" y="-55.9" font-family="Times,serif" font-size="12.00">Address customer concerns or questions</text>
</g>
<!-- 134427579558992&#45;&gt;134427579553664 -->
<g id="edge4" class="edge">
<title>134427579558992&#45;&gt;134427579553664</title>
<path fill="none" stroke="black" d="M327.65,-82.96C336.55,-81.7 347.65,-80.14 359.88,-78.42"/>
<polygon fill="black" stroke="black" points="360.5,-81.87 369.92,-77.01 359.53,-74.94 360.5,-81.87"/>
</g>
<!-- 134427579552800 -->
<g id="node6" class="node">
<title>134427579552800</title>
<polygon fill="none" stroke="black" points="693,-131 666,-113 693,-95 720,-113 693,-131"/>
<text text-anchor="middle" x="693" y="-109.9" font-family="Times,serif" font-size="12.00">X</text>
</g>
<!-- 134427579550832&#45;&gt;134427579552800 -->
<g id="edge5" class="edge">
<title>134427579550832&#45;&gt;134427579552800</title>
<path fill="none" stroke="black" d="M596,-113C617.27,-113 638.54,-113 655.64,-113"/>
<polygon fill="black" stroke="black" points="655.71,-116.5 665.71,-113 655.71,-109.5 655.71,-116.5"/>
</g>
<!-- 134427579549632 -->
<g id="node7" class="node">
<title>134427579549632</title>
<polygon fill="none" stroke="black" points="841,-77 814,-59 841,-41 868,-59 841,-77"/>
<text text-anchor="middle" x="841" y="-55.9" font-family="Times,serif" font-size="12.00">X</text>
</g>
<!-- 134427579553664&#45;&gt;134427579549632 -->
<g id="edge6" class="edge">
<title>134427579553664&#45;&gt;134427579549632</title>
<path fill="none" stroke="black" d="M630.48,-59C692.67,-59 762.33,-59 803.61,-59"/>
<polygon fill="black" stroke="black" points="803.72,-62.5 813.72,-59 803.72,-55.5 803.72,-62.5"/>
</g>
<!-- 134427579550064 -->
<g id="node8" class="node">
<title>134427579550064</title>
<polygon fill="none" stroke="black" points="2081,-125 2054,-107 2081,-89 2108,-107 2081,-125"/>
<text text-anchor="middle" x="2081" y="-103.9" font-family="Times,serif" font-size="12.00">X</text>
</g>
<!-- 134427579552800&#45;&gt;134427579550064 -->
<g id="edge7" class="edge">
<title>134427579552800&#45;&gt;134427579550064</title>
<path fill="none" stroke="black" d="M708.84,-120.93C721.13,-127.13 739.23,-135.44 756,-140 856.22,-167.24 884.14,-168 988,-168 988,-168 988,-168 1808,-168 1902.69,-168 1926.9,-157.85 2018,-132 2030.69,-128.4 2044.34,-123.06 2055.59,-118.25"/>
<polygon fill="black" stroke="black" points="2057.04,-121.44 2064.78,-114.2 2054.22,-115.03 2057.04,-121.44"/>
</g>
<!-- 134427579550976 -->
<g id="node10" class="node">
<title>134427579550976</title>
<polygon fill="none" stroke="black" points="926,-131 756,-131 756,-95 926,-95 926,-131"/>
<text text-anchor="middle" x="841" y="-109.9" font-family="Times,serif" font-size="12.00">Explain product selection</text>
</g>
<!-- 134427579552800&#45;&gt;134427579550976 -->
<g id="edge8" class="edge">
<title>134427579552800&#45;&gt;134427579550976</title>
<path fill="none" stroke="black" d="M720.1,-113C727.69,-113 736.45,-113 745.72,-113"/>
<polygon fill="black" stroke="black" points="745.93,-116.5 755.93,-113 745.93,-109.5 745.93,-116.5"/>
</g>
<!-- 134427579549632&#45;&gt;134427579550064 -->
<g id="edge9" class="edge">
<title>134427579549632&#45;&gt;134427579550064</title>
<path fill="none" stroke="black" d="M858.4,-52.57C898.96,-37.28 1007.48,0 1101.5,0 1101.5,0 1101.5,0 1808,0 1904.71,0 1935.01,-7.35 2018,-57 2033.81,-66.46 2049.96,-79.62 2061.81,-90.06"/>
<polygon fill="black" stroke="black" points="2059.5,-92.69 2069.27,-96.78 2064.18,-87.49 2059.5,-92.69"/>
</g>
<!-- 134427579559760 -->
<g id="node9" class="node">
<title>134427579559760</title>
<polygon fill="none" stroke="black" points="989,-121 962,-103 989,-85 1016,-103 989,-121"/>
<text text-anchor="middle" x="989" y="-99.9" font-family="Times,serif" font-size="12.00">X</text>
</g>
<!-- 134427579549632&#45;&gt;134427579559760 -->
<g id="edge10" class="edge">
<title>134427579549632&#45;&gt;134427579559760</title>
<path fill="none" stroke="black" d="M860.2,-64.48C885.36,-72.07 931,-85.82 960.38,-94.68"/>
<polygon fill="black" stroke="black" points="959.45,-98.05 970.03,-97.59 961.47,-91.35 959.45,-98.05"/>
</g>
<!-- 134427579559664 -->
<g id="node18" class="node">
<title>134427579559664</title>
<ellipse fill="orange" stroke="black" cx="2162" cy="-107" rx="18" ry="18"/>
</g>
<!-- 134427579550064&#45;&gt;134427579559664 -->
<g id="edge13" class="edge">
<title>134427579550064&#45;&gt;134427579559664</title>
<path fill="none" stroke="black" d="M2108.31,-107C2116.42,-107 2125.37,-107 2133.56,-107"/>
<polygon fill="black" stroke="black" points="2133.75,-110.5 2143.75,-107 2133.75,-103.5 2133.75,-110.5"/>
</g>
<!-- 134427579563840 -->
<g id="node11" class="node">
<title>134427579563840</title>
<polygon fill="none" stroke="black" points="1153,-121 1052,-121 1052,-85 1153,-85 1153,-121"/>
<text text-anchor="middle" x="1102.5" y="-99.9" font-family="Times,serif" font-size="12.00">Provide quote</text>
</g>
<!-- 134427579559760&#45;&gt;134427579563840 -->
<g id="edge12" class="edge">
<title>134427579559760&#45;&gt;134427579563840</title>
<path fill="none" stroke="black" d="M1016.14,-103C1023.91,-103 1032.75,-103 1041.73,-103"/>
<polygon fill="black" stroke="black" points="1041.88,-106.5 1051.88,-103 1041.88,-99.5 1041.88,-106.5"/>
</g>
<!-- 134427579550976&#45;&gt;134427579559760 -->
<g id="edge11" class="edge">
<title>134427579550976&#45;&gt;134427579559760</title>
<path fill="none" stroke="black" d="M926.08,-107.24C935.89,-106.57 945.42,-105.92 953.95,-105.33"/>
<polygon fill="black" stroke="black" points="954.42,-108.81 964.16,-104.63 953.95,-101.82 954.42,-108.81"/>
</g>
<!-- 134427579559376 -->
<g id="node12" class="node">
<title>134427579559376</title>
<polygon fill="none" stroke="black" points="1216,-121 1189,-103 1216,-85 1243,-103 1216,-121"/>
<text text-anchor="middle" x="1216" y="-99.9" font-family="Times,serif" font-size="12.00">X</text>
</g>
<!-- 134427579563840&#45;&gt;134427579559376 -->
<g id="edge14" class="edge">
<title>134427579563840&#45;&gt;134427579559376</title>
<path fill="none" stroke="black" d="M1153.05,-103C1161.72,-103 1170.6,-103 1178.82,-103"/>
<polygon fill="black" stroke="black" points="1178.82,-106.5 1188.82,-103 1178.82,-99.5 1178.82,-106.5"/>
</g>
<!-- 134427579559376&#45;&gt;134427579550064 -->
<g id="edge15" class="edge">
<title>134427579559376&#45;&gt;134427579550064</title>
<path fill="none" stroke="black" d="M1236.48,-107.52C1271.36,-115.21 1346.9,-130 1411.5,-130 1411.5,-130 1411.5,-130 1808,-130 1895.38,-130 1997.99,-118.07 2048.57,-111.39"/>
<polygon fill="black" stroke="black" points="2049.1,-114.85 2058.54,-110.05 2048.17,-107.92 2049.1,-114.85"/>
</g>
<!-- 134427579551024 -->
<g id="node13" class="node">
<title>134427579551024</title>
<polygon fill="none" stroke="black" points="1306,-102 1279,-84 1306,-66 1333,-84 1306,-102"/>
<text text-anchor="middle" x="1306" y="-80.9" font-family="Times,serif" font-size="12.00">X</text>
</g>
<!-- 134427579559376&#45;&gt;134427579551024 -->
<g id="edge16" class="edge">
<title>134427579559376&#45;&gt;134427579551024</title>
<path fill="none" stroke="black" d="M1236.97,-98.69C1248.22,-96.26 1262.5,-93.18 1275.06,-90.46"/>
<polygon fill="black" stroke="black" points="1276.07,-93.83 1285.11,-88.29 1274.6,-86.98 1276.07,-93.83"/>
</g>
<!-- 134427579548240 -->
<g id="node14" class="node">
<title>134427579548240</title>
<polygon fill="none" stroke="black" points="1991,-102 1964,-84 1991,-66 2018,-84 1991,-102"/>
<text text-anchor="middle" x="1991" y="-80.9" font-family="Times,serif" font-size="12.00">X</text>
</g>
<!-- 134427579551024&#45;&gt;134427579548240 -->
<g id="edge17" class="edge">
<title>134427579551024&#45;&gt;134427579548240</title>
<path fill="none" stroke="black" d="M1333.36,-84C1438.9,-84 1831.2,-84 1953.41,-84"/>
<polygon fill="black" stroke="black" points="1953.72,-87.5 1963.72,-84 1953.72,-80.5 1953.72,-87.5"/>
</g>
<!-- 134427579557216 -->
<g id="node15" class="node">
<title>134427579557216</title>
<polygon fill="none" stroke="black" points="1456,-64 1369,-64 1369,-28 1456,-28 1456,-64"/>
<text text-anchor="middle" x="1412.5" y="-42.9" font-family="Times,serif" font-size="12.00">Place order</text>
</g>
<!-- 134427579551024&#45;&gt;134427579557216 -->
<g id="edge18" class="edge">
<title>134427579551024&#45;&gt;134427579557216</title>
<path fill="none" stroke="black" d="M1324.26,-77.73C1333.96,-74.2 1346.64,-69.59 1359.31,-64.98"/>
<polygon fill="black" stroke="black" points="1360.75,-68.18 1368.95,-61.47 1358.36,-61.6 1360.75,-68.18"/>
</g>
<!-- 134427579548240&#45;&gt;134427579550064 -->
<g id="edge19" class="edge">
<title>134427579548240&#45;&gt;134427579550064</title>
<path fill="none" stroke="black" d="M2011.09,-88.99C2022.82,-92.06 2038.07,-96.04 2051.24,-99.48"/>
<polygon fill="black" stroke="black" points="2050.68,-102.96 2061.24,-102.1 2052.45,-96.18 2050.68,-102.96"/>
</g>
<!-- 134427579553040 -->
<g id="node16" class="node">
<title>134427579553040</title>
<polygon fill="none" stroke="black" points="1650,-64 1492,-64 1492,-28 1650,-28 1650,-64"/>
<text text-anchor="middle" x="1571" y="-42.9" font-family="Times,serif" font-size="12.00">Record order in system</text>
</g>
<!-- 134427579557216&#45;&gt;134427579553040 -->
<g id="edge20" class="edge">
<title>134427579557216&#45;&gt;134427579553040</title>
<path fill="none" stroke="black" d="M1456.26,-46C1464.29,-46 1472.94,-46 1481.77,-46"/>
<polygon fill="black" stroke="black" points="1481.78,-49.5 1491.78,-46 1481.78,-42.5 1481.78,-49.5"/>
</g>
<!-- 134427579556160 -->
<g id="node17" class="node">
<title>134427579556160</title>
<polygon fill="none" stroke="black" points="1928,-64 1686,-64 1686,-28 1928,-28 1928,-64"/>
<text text-anchor="middle" x="1807" y="-42.9" font-family="Times,serif" font-size="12.00">Send order confirmation to customer</text>
</g>
<!-- 134427579553040&#45;&gt;134427579556160 -->
<g id="edge21" class="edge">
<title>134427579553040&#45;&gt;134427579556160</title>
<path fill="none" stroke="black" d="M1650.24,-46C1658.46,-46 1666.96,-46 1675.55,-46"/>
<polygon fill="black" stroke="black" points="1675.68,-49.5 1685.68,-46 1675.68,-42.5 1675.68,-49.5"/>
</g>
<!-- 134427579556160&#45;&gt;134427579548240 -->
<g id="edge22" class="edge">
<title>134427579556160&#45;&gt;134427579548240</title>
<path fill="none" stroke="black" d="M1894.47,-64.05C1918.08,-68.98 1942.11,-74 1960.15,-77.77"/>
<polygon fill="black" stroke="black" points="1959.54,-81.22 1970.04,-79.83 1960.97,-74.36 1959.54,-81.22"/>
</g>
</g>
</svg>
