<?xml version="1.0" encoding="UTF-8" standalone="no"?>
<!DOCTYPE svg PUBLIC "-//W3C//DTD SVG 1.1//EN"
 "http://www.w3.org/Graphics/SVG/1.1/DTD/svg11.dtd">
<!-- Generated by graphviz version 2.43.0 (0)
 -->
<!-- Title: %3 Pages: 1 -->
<svg width="1892pt" height="136pt"
 viewBox="0.00 0.00 1892.00 136.00" xmlns="http://www.w3.org/2000/svg" xmlns:xlink="http://www.w3.org/1999/xlink">
<g id="graph0" class="graph" transform="scale(1 1) rotate(0) translate(4 132)">
<title>%3</title>
<polygon fill="white" stroke="transparent" points="-4,4 -4,-132 1888,-132 1888,4 -4,4"/>
<!-- 134427581544384 -->
<g id="node1" class="node">
<title>134427581544384</title>
<ellipse fill="green" stroke="black" cx="18" cy="-83" rx="18" ry="18"/>
</g>
<!-- 134427581539728 -->
<g id="node2" class="node">
<title>134427581539728</title>
<polygon fill="none" stroke="black" points="242,-101 72,-101 72,-65 242,-65 242,-101"/>
<text text-anchor="middle" x="157" y="-79.9" font-family="Times,serif" font-size="12.00">Receive customer inquiry</text>
</g>
<!-- 134427581544384&#45;&gt;134427581539728 -->
<g id="edge1" class="edge">
<title>134427581544384&#45;&gt;134427581539728</title>
<path fill="none" stroke="black" d="M36.07,-83C43.15,-83 51.96,-83 61.57,-83"/>
<polygon fill="black" stroke="black" points="61.83,-86.5 71.83,-83 61.83,-79.5 61.83,-86.5"/>
</g>
<!-- 134427581530272 -->
<g id="node3" class="node">
<title>134427581530272</title>
<polygon fill="none" stroke="black" points="305,-101 278,-83 305,-65 332,-83 305,-101"/>
<text text-anchor="middle" x="305" y="-79.9" font-family="Times,serif" font-size="12.00">+</text>
</g>
<!-- 134427581539728&#45;&gt;134427581530272 -->
<g id="edge2" class="edge">
<title>134427581539728&#45;&gt;134427581530272</title>
<path fill="none" stroke="black" d="M242.08,-83C250.97,-83 259.64,-83 267.54,-83"/>
<polygon fill="black" stroke="black" points="267.78,-86.5 277.78,-83 267.78,-79.5 267.78,-86.5"/>
</g>
<!-- 134427581534160 -->
<g id="node4" class="node">
<title>134427581534160</title>
<polygon fill="none" stroke="black" points="596,-128 402,-128 402,-92 596,-92 596,-128"/>
<text text-anchor="middle" x="499" y="-106.9" font-family="Times,serif" font-size="12.00">Collect customer information</text>
</g>
<!-- 134427581530272&#45;&gt;134427581534160 -->
<g id="edge3" class="edge">
<title>134427581530272&#45;&gt;134427581534160</title>
<path fill="none" stroke="black" d="M327.65,-86.04C343.86,-88.32 367.34,-91.63 391.73,-95.06"/>
<polygon fill="black" stroke="black" points="391.45,-98.55 401.84,-96.48 392.42,-91.62 391.45,-98.55"/>
</g>
<!-- 134427581543040 -->
<g id="node5" class="node">
<title>134427581543040</title>
<polygon fill="none" stroke="black" points="630,-74 368,-74 368,-38 630,-38 630,-74"/>
<text text-anchor="middle" x="499" y="-52.9" font-family="Times,serif" font-size="12.00">Address customer concerns or questions</text>
</g>
<!-- 134427581530272&#45;&gt;134427581543040 -->
<g id="edge4" class="edge">
<title>134427581530272&#45;&gt;134427581543040</title>
<path fill="none" stroke="black" d="M327.65,-79.96C336.55,-78.7 347.65,-77.14 359.88,-75.42"/>
<polygon fill="black" stroke="black" points="360.5,-78.87 369.92,-74.01 359.53,-71.94 360.5,-78.87"/>
</g>
<!-- 134427581537760 -->
<g id="node6" class="node">
<title>134427581537760</title>
<polygon fill="none" stroke="black" points="693,-101 666,-83 693,-65 720,-83 693,-101"/>
<text text-anchor="middle" x="693" y="-79.9" font-family="Times,serif" font-size="12.00">+</text>
</g>
<!-- 134427581534160&#45;&gt;134427581537760 -->
<g id="edge5" class="edge">
<title>134427581534160&#45;&gt;134427581537760</title>
<path fill="none" stroke="black" d="M596,-96.5C619.24,-93.23 642.49,-89.96 660.28,-87.46"/>
<polygon fill="black" stroke="black" points="660.93,-90.9 670.35,-86.04 659.96,-83.97 660.93,-90.9"/>
</g>
<!-- 134427581543040&#45;&gt;134427581537760 -->
<g id="edge6" class="edge">
<title>134427581543040&#45;&gt;134427581537760</title>
<path fill="none" stroke="black" d="M628.07,-74.01C639.86,-75.67 650.93,-77.22 660.43,-78.56"/>
<polygon fill="black" stroke="black" points="660.06,-82.04 670.45,-79.97 661.03,-75.11 660.06,-82.04"/>
</g>
<!-- 134427580844880 -->
<g id="node7" class="node">
<title>134427580844880</title>
<polygon fill="none" stroke="black" points="783,-101 756,-83 783,-65 810,-83 783,-101"/>
<text text-anchor="middle" x="783" y="-79.9" font-family="Times,serif" font-size="12.00">X</text>
</g>
<!-- 134427581537760&#45;&gt;134427580844880 -->
<g id="edge7" class="edge">
<title>134427581537760&#45;&gt;134427580844880</title>
<path fill="none" stroke="black" d="M720.4,-83C728.39,-83 737.31,-83 745.82,-83"/>
<polygon fill="black" stroke="black" points="745.92,-86.5 755.92,-83 745.92,-79.5 745.92,-86.5"/>
</g>
<!-- 134427580858128 -->
<g id="node8" class="node">
<title>134427580858128</title>
<polygon fill="none" stroke="black" points="1785,-101 1758,-83 1785,-65 1812,-83 1785,-101"/>
<text text-anchor="middle" x="1785" y="-79.9" font-family="Times,serif" font-size="12.00">X</text>
</g>
<!-- 134427580844880&#45;&gt;134427580858128 -->
<g id="edge8" class="edge">
<title>134427580844880&#45;&gt;134427580858128</title>
<path fill="none" stroke="black" d="M804.71,-86.54C844.28,-93 933.41,-106 1009,-106 1009,-106 1009,-106 1512,-106 1599.38,-106 1701.99,-94.07 1752.57,-87.39"/>
<polygon fill="black" stroke="black" points="1753.1,-90.85 1762.54,-86.05 1752.17,-83.92 1753.1,-90.85"/>
</g>
<!-- 134427580843248 -->
<g id="node9" class="node">
<title>134427580843248</title>
<polygon fill="none" stroke="black" points="947,-78 846,-78 846,-42 947,-42 947,-78"/>
<text text-anchor="middle" x="896.5" y="-56.9" font-family="Times,serif" font-size="12.00">Provide quote</text>
</g>
<!-- 134427580844880&#45;&gt;134427580843248 -->
<g id="edge9" class="edge">
<title>134427580844880&#45;&gt;134427580843248</title>
<path fill="none" stroke="black" d="M803.93,-78.89C812.95,-77.03 824.12,-74.72 835.53,-72.37"/>
<polygon fill="black" stroke="black" points="836.49,-75.75 845.58,-70.3 835.08,-68.89 836.49,-75.75"/>
</g>
<!-- 134427581536608 -->
<g id="node15" class="node">
<title>134427581536608</title>
<ellipse fill="orange" stroke="black" cx="1866" cy="-83" rx="18" ry="18"/>
</g>
<!-- 134427580858128&#45;&gt;134427581536608 -->
<g id="edge11" class="edge">
<title>134427580858128&#45;&gt;134427581536608</title>
<path fill="none" stroke="black" d="M1812.31,-83C1820.42,-83 1829.37,-83 1837.56,-83"/>
<polygon fill="black" stroke="black" points="1837.75,-86.5 1847.75,-83 1837.75,-79.5 1837.75,-86.5"/>
</g>
<!-- 134425784032976 -->
<g id="node10" class="node">
<title>134425784032976</title>
<polygon fill="none" stroke="black" points="1010,-78 983,-60 1010,-42 1037,-60 1010,-78"/>
<text text-anchor="middle" x="1010" y="-56.9" font-family="Times,serif" font-size="12.00">X</text>
</g>
<!-- 134427580843248&#45;&gt;134425784032976 -->
<g id="edge10" class="edge">
<title>134427580843248&#45;&gt;134425784032976</title>
<path fill="none" stroke="black" d="M947.05,-60C955.72,-60 964.6,-60 972.82,-60"/>
<polygon fill="black" stroke="black" points="972.82,-63.5 982.82,-60 972.82,-56.5 972.82,-63.5"/>
</g>
<!-- 134425784041376 -->
<g id="node11" class="node">
<title>134425784041376</title>
<polygon fill="none" stroke="black" points="1695,-78 1668,-60 1695,-42 1722,-60 1695,-78"/>
<text text-anchor="middle" x="1695" y="-56.9" font-family="Times,serif" font-size="12.00">X</text>
</g>
<!-- 134425784032976&#45;&gt;134425784041376 -->
<g id="edge12" class="edge">
<title>134425784032976&#45;&gt;134425784041376</title>
<path fill="none" stroke="black" d="M1037.36,-60C1142.9,-60 1535.2,-60 1657.41,-60"/>
<polygon fill="black" stroke="black" points="1657.72,-63.5 1667.72,-60 1657.72,-56.5 1657.72,-63.5"/>
</g>
<!-- 134425784036912 -->
<g id="node12" class="node">
<title>134425784036912</title>
<polygon fill="none" stroke="black" points="1160,-36 1073,-36 1073,0 1160,0 1160,-36"/>
<text text-anchor="middle" x="1116.5" y="-14.9" font-family="Times,serif" font-size="12.00">Place order</text>
</g>
<!-- 134425784032976&#45;&gt;134425784036912 -->
<g id="edge13" class="edge">
<title>134425784032976&#45;&gt;134425784036912</title>
<path fill="none" stroke="black" d="M1027.33,-53.44C1037.12,-49.5 1050.18,-44.25 1063.23,-39.01"/>
<polygon fill="black" stroke="black" points="1064.72,-42.18 1072.69,-35.2 1062.11,-35.69 1064.72,-42.18"/>
</g>
<!-- 134425784041376&#45;&gt;134427580858128 -->
<g id="edge14" class="edge">
<title>134425784041376&#45;&gt;134427580858128</title>
<path fill="none" stroke="black" d="M1715.09,-64.99C1726.82,-68.06 1742.07,-72.04 1755.24,-75.48"/>
<polygon fill="black" stroke="black" points="1754.68,-78.96 1765.24,-78.1 1756.45,-72.18 1754.68,-78.96"/>
</g>
<!-- 134425784030816 -->
<g id="node13" class="node">
<title>134425784030816</title>
<polygon fill="none" stroke="black" points="1354,-36 1196,-36 1196,0 1354,0 1354,-36"/>
<text text-anchor="middle" x="1275" y="-14.9" font-family="Times,serif" font-size="12.00">Record order in system</text>
</g>
<!-- 134425784036912&#45;&gt;134425784030816 -->
<g id="edge15" class="edge">
<title>134425784036912&#45;&gt;134425784030816</title>
<path fill="none" stroke="black" d="M1160.26,-18C1168.29,-18 1176.94,-18 1185.77,-18"/>
<polygon fill="black" stroke="black" points="1185.78,-21.5 1195.78,-18 1185.78,-14.5 1185.78,-21.5"/>
</g>
<!-- 134425784033072 -->
<g id="node14" class="node">
<title>134425784033072</title>
<polygon fill="none" stroke="black" points="1632,-36 1390,-36 1390,0 1632,0 1632,-36"/>
<text text-anchor="middle" x="1511" y="-14.9" font-family="Times,serif" font-size="12.00">Send order confirmation to customer</text>
</g>
<!-- 134425784030816&#45;&gt;134425784033072 -->
<g id="edge16" class="edge">
<title>134425784030816&#45;&gt;134425784033072</title>
<path fill="none" stroke="black" d="M1354.24,-18C1362.46,-18 1370.96,-18 1379.55,-18"/>
<polygon fill="black" stroke="black" points="1379.68,-21.5 1389.68,-18 1379.68,-14.5 1379.68,-21.5"/>
</g>
<!-- 134425784033072&#45;&gt;134425784041376 -->
<g id="edge17" class="edge">
<title>134425784033072&#45;&gt;134425784041376</title>
<path fill="none" stroke="black" d="M1590.24,-36.06C1616.66,-42.15 1644.54,-48.59 1664.74,-53.25"/>
<polygon fill="black" stroke="black" points="1664.02,-56.67 1674.56,-55.51 1665.6,-49.85 1664.02,-56.67"/>
</g>
</g>
</svg>
