<?xml version="1.0" encoding="UTF-8" standalone="no"?>
<!DOCTYPE svg PUBLIC "-//W3C//DTD SVG 1.1//EN"
 "http://www.w3.org/Graphics/SVG/1.1/DTD/svg11.dtd">
<!-- Generated by graphviz version 2.43.0 (0)
 -->
<!-- Title: %3 Pages: 1 -->
<svg width="2737pt" height="148pt"
 viewBox="0.00 0.00 2737.00 148.00" xmlns="http://www.w3.org/2000/svg" xmlns:xlink="http://www.w3.org/1999/xlink">
<g id="graph0" class="graph" transform="scale(1 1) rotate(0) translate(4 144)">
<title>%3</title>
<polygon fill="white" stroke="transparent" points="-4,4 -4,-144 2733,-144 2733,4 -4,4"/>
<!-- 134427723478832 -->
<g id="node1" class="node">
<title>134427723478832</title>
<ellipse fill="green" stroke="black" cx="18" cy="-95" rx="18" ry="18"/>
</g>
<!-- 134427723479552 -->
<g id="node2" class="node">
<title>134427723479552</title>
<polygon fill="none" stroke="black" points="242,-113 72,-113 72,-77 242,-77 242,-113"/>
<text text-anchor="middle" x="157" y="-91.9" font-family="Times,serif" font-size="12.00">Receive customer inquiry</text>
</g>
<!-- 134427723478832&#45;&gt;134427723479552 -->
<g id="edge1" class="edge">
<title>134427723478832&#45;&gt;134427723479552</title>
<path fill="none" stroke="black" d="M36.07,-95C43.15,-95 51.96,-95 61.57,-95"/>
<polygon fill="black" stroke="black" points="61.83,-98.5 71.83,-95 61.83,-91.5 61.83,-98.5"/>
</g>
<!-- 134427723467264 -->
<g id="node3" class="node">
<title>134427723467264</title>
<polygon fill="none" stroke="black" points="305,-113 278,-95 305,-77 332,-95 305,-113"/>
<text text-anchor="middle" x="305" y="-91.9" font-family="Times,serif" font-size="12.00">X</text>
</g>
<!-- 134427723479552&#45;&gt;134427723467264 -->
<g id="edge2" class="edge">
<title>134427723479552&#45;&gt;134427723467264</title>
<path fill="none" stroke="black" d="M242.08,-95C250.97,-95 259.64,-95 267.54,-95"/>
<polygon fill="black" stroke="black" points="267.78,-98.5 277.78,-95 267.78,-91.5 267.78,-98.5"/>
</g>
<!-- 134427723466640 -->
<g id="node4" class="node">
<title>134427723466640</title>
<polygon fill="none" stroke="black" points="562,-140 368,-140 368,-104 562,-104 562,-140"/>
<text text-anchor="middle" x="465" y="-118.9" font-family="Times,serif" font-size="12.00">Collect customer information</text>
</g>
<!-- 134427723467264&#45;&gt;134427723466640 -->
<g id="edge3" class="edge">
<title>134427723467264&#45;&gt;134427723466640</title>
<path fill="none" stroke="black" d="M326.98,-98.59C335.64,-100.06 346.37,-101.9 357.98,-103.88"/>
<polygon fill="black" stroke="black" points="357.47,-107.35 367.92,-105.58 358.65,-100.45 357.47,-107.35"/>
</g>
<!-- 134427723470768 -->
<g id="node5" class="node">
<title>134427723470768</title>
<polygon fill="none" stroke="black" points="465,-86 438,-68 465,-50 492,-68 465,-86"/>
<text text-anchor="middle" x="465" y="-64.9" font-family="Times,serif" font-size="12.00">+</text>
</g>
<!-- 134427723467264&#45;&gt;134427723470768 -->
<g id="edge4" class="edge">
<title>134427723467264&#45;&gt;134427723470768</title>
<path fill="none" stroke="black" d="M326.98,-91.41C354.13,-86.77 401.66,-78.65 432.98,-73.3"/>
<polygon fill="black" stroke="black" points="433.66,-76.73 442.93,-71.6 432.49,-69.83 433.66,-76.73"/>
</g>
<!-- 134427723476864 -->
<g id="node6" class="node">
<title>134427723476864</title>
<polygon fill="none" stroke="black" points="1158,-140 896,-140 896,-104 1158,-104 1158,-140"/>
<text text-anchor="middle" x="1027" y="-118.9" font-family="Times,serif" font-size="12.00">Address customer concerns or questions</text>
</g>
<!-- 134427723466640&#45;&gt;134427723476864 -->
<g id="edge5" class="edge">
<title>134427723466640&#45;&gt;134427723476864</title>
<path fill="none" stroke="black" d="M562.27,-122C651.31,-122 784.72,-122 885.63,-122"/>
<polygon fill="black" stroke="black" points="885.9,-125.5 895.9,-122 885.9,-118.5 885.9,-125.5"/>
</g>
<!-- 134427723476336 -->
<g id="node7" class="node">
<title>134427723476336</title>
<polygon fill="none" stroke="black" points="826,-90 632,-90 632,-54 826,-54 826,-90"/>
<text text-anchor="middle" x="729" y="-68.9" font-family="Times,serif" font-size="12.00">Collect customer information</text>
</g>
<!-- 134427723470768&#45;&gt;134427723476336 -->
<g id="edge6" class="edge">
<title>134427723470768&#45;&gt;134427723476336</title>
<path fill="none" stroke="black" d="M491.6,-68.39C521.83,-68.85 574.05,-69.65 621.74,-70.38"/>
<polygon fill="black" stroke="black" points="621.78,-73.88 631.83,-70.53 621.89,-66.88 621.78,-73.88"/>
</g>
<!-- 134427723476768 -->
<g id="node8" class="node">
<title>134427723476768</title>
<polygon fill="none" stroke="black" points="860,-36 598,-36 598,0 860,0 860,-36"/>
<text text-anchor="middle" x="729" y="-14.9" font-family="Times,serif" font-size="12.00">Address customer concerns or questions</text>
</g>
<!-- 134427723470768&#45;&gt;134427723476768 -->
<g id="edge7" class="edge">
<title>134427723470768&#45;&gt;134427723476768</title>
<path fill="none" stroke="black" d="M486.56,-64.08C516.08,-58.44 572.52,-47.67 623.42,-37.96"/>
<polygon fill="black" stroke="black" points="624.35,-41.34 633.52,-36.03 623.04,-34.47 624.35,-41.34"/>
</g>
<!-- 134427723478160 -->
<g id="node9" class="node">
<title>134427723478160</title>
<polygon fill="none" stroke="black" points="1221,-113 1194,-95 1221,-77 1248,-95 1221,-113"/>
<text text-anchor="middle" x="1221" y="-91.9" font-family="Times,serif" font-size="12.00">X</text>
</g>
<!-- 134427723476864&#45;&gt;134427723478160 -->
<g id="edge8" class="edge">
<title>134427723476864&#45;&gt;134427723478160</title>
<path fill="none" stroke="black" d="M1156.07,-103.99C1167.86,-102.33 1178.93,-100.78 1188.43,-99.44"/>
<polygon fill="black" stroke="black" points="1189.03,-102.89 1198.45,-98.03 1188.06,-95.96 1189.03,-102.89"/>
</g>
<!-- 134427723476912 -->
<g id="node10" class="node">
<title>134427723476912</title>
<polygon fill="none" stroke="black" points="1027,-86 1000,-68 1027,-50 1054,-68 1027,-86"/>
<text text-anchor="middle" x="1027" y="-64.9" font-family="Times,serif" font-size="12.00">+</text>
</g>
<!-- 134427723476336&#45;&gt;134427723476912 -->
<g id="edge9" class="edge">
<title>134427723476336&#45;&gt;134427723476912</title>
<path fill="none" stroke="black" d="M826.1,-70.7C882.2,-69.94 949.68,-69.03 990.14,-68.48"/>
<polygon fill="black" stroke="black" points="990.36,-71.98 1000.32,-68.35 990.27,-64.98 990.36,-71.98"/>
</g>
<!-- 134427723476768&#45;&gt;134427723476912 -->
<g id="edge10" class="edge">
<title>134427723476768&#45;&gt;134427723476912</title>
<path fill="none" stroke="black" d="M836.86,-36.05C892.93,-45.52 957.55,-56.44 994.9,-62.75"/>
<polygon fill="black" stroke="black" points="994.68,-66.26 1005.13,-64.47 995.85,-59.36 994.68,-66.26"/>
</g>
<!-- 134427723466736 -->
<g id="node11" class="node">
<title>134427723466736</title>
<polygon fill="none" stroke="black" points="1311,-113 1284,-95 1311,-77 1338,-95 1311,-113"/>
<text text-anchor="middle" x="1311" y="-91.9" font-family="Times,serif" font-size="12.00">X</text>
</g>
<!-- 134427723478160&#45;&gt;134427723466736 -->
<g id="edge12" class="edge">
<title>134427723478160&#45;&gt;134427723466736</title>
<path fill="none" stroke="black" d="M1248.4,-95C1256.39,-95 1265.31,-95 1273.82,-95"/>
<polygon fill="black" stroke="black" points="1273.92,-98.5 1283.92,-95 1273.92,-91.5 1273.92,-98.5"/>
</g>
<!-- 134427723476912&#45;&gt;134427723478160 -->
<g id="edge11" class="edge">
<title>134427723476912&#45;&gt;134427723478160</title>
<path fill="none" stroke="black" d="M1049.65,-71.04C1083.52,-75.81 1149.2,-85.04 1188.37,-90.55"/>
<polygon fill="black" stroke="black" points="1188.04,-94.04 1198.43,-91.97 1189.01,-87.11 1188.04,-94.04"/>
</g>
<!-- 134427723476480 -->
<g id="node12" class="node">
<title>134427723476480</title>
<polygon fill="none" stroke="black" points="2630,-113 2603,-95 2630,-77 2657,-95 2630,-113"/>
<text text-anchor="middle" x="2630" y="-91.9" font-family="Times,serif" font-size="12.00">X</text>
</g>
<!-- 134427723466736&#45;&gt;134427723476480 -->
<g id="edge13" class="edge">
<title>134427723466736&#45;&gt;134427723476480</title>
<path fill="none" stroke="black" d="M1335.2,-97.12C1399.51,-102.82 1585.54,-118 1740.5,-118 1740.5,-118 1740.5,-118 2357,-118 2444.38,-118 2546.99,-106.07 2597.57,-99.39"/>
<polygon fill="black" stroke="black" points="2598.1,-102.85 2607.54,-98.05 2597.17,-95.92 2598.1,-102.85"/>
</g>
<!-- 134427723475328 -->
<g id="node13" class="node">
<title>134427723475328</title>
<polygon fill="none" stroke="black" points="1655,-90 1374,-90 1374,-54 1655,-54 1655,-90"/>
<text text-anchor="middle" x="1514.5" y="-68.9" font-family="Times,serif" font-size="12.00">Guide customer in selecting product/service</text>
</g>
<!-- 134427723466736&#45;&gt;134427723475328 -->
<g id="edge14" class="edge">
<title>134427723466736&#45;&gt;134427723475328</title>
<path fill="none" stroke="black" d="M1334.33,-92.45C1342.58,-91.51 1352.65,-90.36 1363.78,-89.09"/>
<polygon fill="black" stroke="black" points="1364.27,-92.56 1373.81,-87.94 1363.48,-85.6 1364.27,-92.56"/>
</g>
<!-- 134427723465344 -->
<g id="node20" class="node">
<title>134427723465344</title>
<ellipse fill="orange" stroke="black" cx="2711" cy="-95" rx="18" ry="18"/>
</g>
<!-- 134427723476480&#45;&gt;134427723465344 -->
<g id="edge16" class="edge">
<title>134427723476480&#45;&gt;134427723465344</title>
<path fill="none" stroke="black" d="M2657.31,-95C2665.42,-95 2674.37,-95 2682.56,-95"/>
<polygon fill="black" stroke="black" points="2682.75,-98.5 2692.75,-95 2682.75,-91.5 2682.75,-98.5"/>
</g>
<!-- 134427723466976 -->
<g id="node14" class="node">
<title>134427723466976</title>
<polygon fill="none" stroke="black" points="1792,-90 1691,-90 1691,-54 1792,-54 1792,-90"/>
<text text-anchor="middle" x="1741.5" y="-68.9" font-family="Times,serif" font-size="12.00">Provide quote</text>
</g>
<!-- 134427723475328&#45;&gt;134427723466976 -->
<g id="edge15" class="edge">
<title>134427723475328&#45;&gt;134427723466976</title>
<path fill="none" stroke="black" d="M1655.12,-72C1663.94,-72 1672.53,-72 1680.64,-72"/>
<polygon fill="black" stroke="black" points="1680.65,-75.5 1690.65,-72 1680.65,-68.5 1680.65,-75.5"/>
</g>
<!-- 134427723472256 -->
<g id="node15" class="node">
<title>134427723472256</title>
<polygon fill="none" stroke="black" points="1855,-90 1828,-72 1855,-54 1882,-72 1855,-90"/>
<text text-anchor="middle" x="1855" y="-68.9" font-family="Times,serif" font-size="12.00">X</text>
</g>
<!-- 134427723466976&#45;&gt;134427723472256 -->
<g id="edge17" class="edge">
<title>134427723466976&#45;&gt;134427723472256</title>
<path fill="none" stroke="black" d="M1792.05,-72C1800.72,-72 1809.6,-72 1817.82,-72"/>
<polygon fill="black" stroke="black" points="1817.82,-75.5 1827.82,-72 1817.82,-68.5 1817.82,-75.5"/>
</g>
<!-- 134427723477824 -->
<g id="node16" class="node">
<title>134427723477824</title>
<polygon fill="none" stroke="black" points="2540,-90 2513,-72 2540,-54 2567,-72 2540,-90"/>
<text text-anchor="middle" x="2540" y="-68.9" font-family="Times,serif" font-size="12.00">X</text>
</g>
<!-- 134427723472256&#45;&gt;134427723477824 -->
<g id="edge18" class="edge">
<title>134427723472256&#45;&gt;134427723477824</title>
<path fill="none" stroke="black" d="M1882.36,-72C1987.9,-72 2380.2,-72 2502.41,-72"/>
<polygon fill="black" stroke="black" points="2502.72,-75.5 2512.72,-72 2502.72,-68.5 2502.72,-75.5"/>
</g>
<!-- 134427723464816 -->
<g id="node17" class="node">
<title>134427723464816</title>
<polygon fill="none" stroke="black" points="2005,-48 1918,-48 1918,-12 2005,-12 2005,-48"/>
<text text-anchor="middle" x="1961.5" y="-26.9" font-family="Times,serif" font-size="12.00">Place order</text>
</g>
<!-- 134427723472256&#45;&gt;134427723464816 -->
<g id="edge19" class="edge">
<title>134427723472256&#45;&gt;134427723464816</title>
<path fill="none" stroke="black" d="M1872.33,-65.44C1882.12,-61.5 1895.18,-56.25 1908.23,-51.01"/>
<polygon fill="black" stroke="black" points="1909.72,-54.18 1917.69,-47.2 1907.11,-47.69 1909.72,-54.18"/>
</g>
<!-- 134427723477824&#45;&gt;134427723476480 -->
<g id="edge20" class="edge">
<title>134427723477824&#45;&gt;134427723476480</title>
<path fill="none" stroke="black" d="M2560.09,-76.99C2571.82,-80.06 2587.07,-84.04 2600.24,-87.48"/>
<polygon fill="black" stroke="black" points="2599.68,-90.96 2610.24,-90.1 2601.45,-84.18 2599.68,-90.96"/>
</g>
<!-- 134427723476816 -->
<g id="node18" class="node">
<title>134427723476816</title>
<polygon fill="none" stroke="black" points="2199,-48 2041,-48 2041,-12 2199,-12 2199,-48"/>
<text text-anchor="middle" x="2120" y="-26.9" font-family="Times,serif" font-size="12.00">Record order in system</text>
</g>
<!-- 134427723464816&#45;&gt;134427723476816 -->
<g id="edge21" class="edge">
<title>134427723464816&#45;&gt;134427723476816</title>
<path fill="none" stroke="black" d="M2005.26,-30C2013.29,-30 2021.94,-30 2030.77,-30"/>
<polygon fill="black" stroke="black" points="2030.78,-33.5 2040.78,-30 2030.78,-26.5 2030.78,-33.5"/>
</g>
<!-- 134427723473072 -->
<g id="node19" class="node">
<title>134427723473072</title>
<polygon fill="none" stroke="black" points="2477,-48 2235,-48 2235,-12 2477,-12 2477,-48"/>
<text text-anchor="middle" x="2356" y="-26.9" font-family="Times,serif" font-size="12.00">Send order confirmation to customer</text>
</g>
<!-- 134427723476816&#45;&gt;134427723473072 -->
<g id="edge22" class="edge">
<title>134427723476816&#45;&gt;134427723473072</title>
<path fill="none" stroke="black" d="M2199.24,-30C2207.46,-30 2215.96,-30 2224.55,-30"/>
<polygon fill="black" stroke="black" points="2224.68,-33.5 2234.68,-30 2224.68,-26.5 2224.68,-33.5"/>
</g>
<!-- 134427723473072&#45;&gt;134427723477824 -->
<g id="edge23" class="edge">
<title>134427723473072&#45;&gt;134427723477824</title>
<path fill="none" stroke="black" d="M2435.24,-48.06C2461.66,-54.15 2489.54,-60.59 2509.74,-65.25"/>
<polygon fill="black" stroke="black" points="2509.02,-68.67 2519.56,-67.51 2510.6,-61.85 2509.02,-68.67"/>
</g>
</g>
</svg>
