<?xml version="1.0" encoding="UTF-8" standalone="no"?>
<!DOCTYPE svg PUBLIC "-//W3C//DTD SVG 1.1//EN"
 "http://www.w3.org/Graphics/SVG/1.1/DTD/svg11.dtd">
<!-- Generated by graphviz version 2.43.0 (0)
 -->
<!-- Title: %3 Pages: 1 -->
<svg width="2259pt" height="114pt"
 viewBox="0.00 0.00 2259.00 114.00" xmlns="http://www.w3.org/2000/svg" xmlns:xlink="http://www.w3.org/1999/xlink">
<g id="graph0" class="graph" transform="scale(1 1) rotate(0) translate(4 110)">
<title>%3</title>
<polygon fill="white" stroke="transparent" points="-4,4 -4,-110 2255,-110 2255,4 -4,4"/>
<!-- 134427579557408 -->
<g id="node1" class="node">
<title>134427579557408</title>
<ellipse fill="green" stroke="black" cx="18" cy="-83" rx="18" ry="18"/>
</g>
<!-- 134427579559856 -->
<g id="node2" class="node">
<title>134427579559856</title>
<polygon fill="none" stroke="black" points="242,-101 72,-101 72,-65 242,-65 242,-101"/>
<text text-anchor="middle" x="157" y="-79.9" font-family="Times,serif" font-size="12.00">Receive customer inquiry</text>
</g>
<!-- 134427579557408&#45;&gt;134427579559856 -->
<g id="edge1" class="edge">
<title>134427579557408&#45;&gt;134427579559856</title>
<path fill="none" stroke="black" d="M36.07,-83C43.15,-83 51.96,-83 61.57,-83"/>
<polygon fill="black" stroke="black" points="61.83,-86.5 71.83,-83 61.83,-79.5 61.83,-86.5"/>
</g>
<!-- 134427579555296 -->
<g id="node3" class="node">
<title>134427579555296</title>
<polygon fill="none" stroke="black" points="472,-101 278,-101 278,-65 472,-65 472,-101"/>
<text text-anchor="middle" x="375" y="-79.9" font-family="Times,serif" font-size="12.00">Collect customer information</text>
</g>
<!-- 134427579559856&#45;&gt;134427579555296 -->
<g id="edge2" class="edge">
<title>134427579559856&#45;&gt;134427579555296</title>
<path fill="none" stroke="black" d="M242.13,-83C250.56,-83 259.19,-83 267.81,-83"/>
<polygon fill="black" stroke="black" points="267.91,-86.5 277.91,-83 267.91,-79.5 267.91,-86.5"/>
</g>
<!-- 134427579563792 -->
<g id="node4" class="node">
<title>134427579563792</title>
<polygon fill="none" stroke="black" points="770,-101 508,-101 508,-65 770,-65 770,-101"/>
<text text-anchor="middle" x="639" y="-79.9" font-family="Times,serif" font-size="12.00">Address customer concerns or questions</text>
</g>
<!-- 134427579555296&#45;&gt;134427579563792 -->
<g id="edge3" class="edge">
<title>134427579555296&#45;&gt;134427579563792</title>
<path fill="none" stroke="black" d="M472.07,-83C480.47,-83 489.07,-83 497.73,-83"/>
<polygon fill="black" stroke="black" points="497.91,-86.5 507.91,-83 497.91,-79.5 497.91,-86.5"/>
</g>
<!-- 134427579550640 -->
<g id="node5" class="node">
<title>134427579550640</title>
<polygon fill="none" stroke="black" points="833,-101 806,-83 833,-65 860,-83 833,-101"/>
<text text-anchor="middle" x="833" y="-79.9" font-family="Times,serif" font-size="12.00">X</text>
</g>
<!-- 134427579563792&#45;&gt;134427579550640 -->
<g id="edge4" class="edge">
<title>134427579563792&#45;&gt;134427579550640</title>
<path fill="none" stroke="black" d="M770.19,-83C779.3,-83 787.93,-83 795.7,-83"/>
<polygon fill="black" stroke="black" points="795.72,-86.5 805.72,-83 795.72,-79.5 795.72,-86.5"/>
</g>
<!-- 134427579555056 -->
<g id="node6" class="node">
<title>134427579555056</title>
<polygon fill="none" stroke="black" points="2152,-101 2125,-83 2152,-65 2179,-83 2152,-101"/>
<text text-anchor="middle" x="2152" y="-79.9" font-family="Times,serif" font-size="12.00">X</text>
</g>
<!-- 134427579550640&#45;&gt;134427579555056 -->
<g id="edge5" class="edge">
<title>134427579550640&#45;&gt;134427579555056</title>
<path fill="none" stroke="black" d="M857.2,-85.12C921.51,-90.82 1107.54,-106 1262.5,-106 1262.5,-106 1262.5,-106 1879,-106 1966.38,-106 2068.99,-94.07 2119.57,-87.39"/>
<polygon fill="black" stroke="black" points="2120.1,-90.85 2129.54,-86.05 2119.17,-83.92 2120.1,-90.85"/>
</g>
<!-- 134427579550928 -->
<g id="node7" class="node">
<title>134427579550928</title>
<polygon fill="none" stroke="black" points="1177,-78 896,-78 896,-42 1177,-42 1177,-78"/>
<text text-anchor="middle" x="1036.5" y="-56.9" font-family="Times,serif" font-size="12.00">Guide customer in selecting product/service</text>
</g>
<!-- 134427579550640&#45;&gt;134427579550928 -->
<g id="edge6" class="edge">
<title>134427579550640&#45;&gt;134427579550928</title>
<path fill="none" stroke="black" d="M856.33,-80.45C864.58,-79.51 874.65,-78.36 885.78,-77.09"/>
<polygon fill="black" stroke="black" points="886.27,-80.56 895.81,-75.94 885.48,-73.6 886.27,-80.56"/>
</g>
<!-- 134427579554144 -->
<g id="node14" class="node">
<title>134427579554144</title>
<ellipse fill="orange" stroke="black" cx="2233" cy="-83" rx="18" ry="18"/>
</g>
<!-- 134427579555056&#45;&gt;134427579554144 -->
<g id="edge8" class="edge">
<title>134427579555056&#45;&gt;134427579554144</title>
<path fill="none" stroke="black" d="M2179.31,-83C2187.42,-83 2196.37,-83 2204.56,-83"/>
<polygon fill="black" stroke="black" points="2204.75,-86.5 2214.75,-83 2204.75,-79.5 2204.75,-86.5"/>
</g>
<!-- 134427579552944 -->
<g id="node8" class="node">
<title>134427579552944</title>
<polygon fill="none" stroke="black" points="1314,-78 1213,-78 1213,-42 1314,-42 1314,-78"/>
<text text-anchor="middle" x="1263.5" y="-56.9" font-family="Times,serif" font-size="12.00">Provide quote</text>
</g>
<!-- 134427579550928&#45;&gt;134427579552944 -->
<g id="edge7" class="edge">
<title>134427579550928&#45;&gt;134427579552944</title>
<path fill="none" stroke="black" d="M1177.12,-60C1185.94,-60 1194.53,-60 1202.64,-60"/>
<polygon fill="black" stroke="black" points="1202.65,-63.5 1212.65,-60 1202.65,-56.5 1202.65,-63.5"/>
</g>
<!-- 134427579559520 -->
<g id="node9" class="node">
<title>134427579559520</title>
<polygon fill="none" stroke="black" points="1377,-78 1350,-60 1377,-42 1404,-60 1377,-78"/>
<text text-anchor="middle" x="1377" y="-56.9" font-family="Times,serif" font-size="12.00">X</text>
</g>
<!-- 134427579552944&#45;&gt;134427579559520 -->
<g id="edge9" class="edge">
<title>134427579552944&#45;&gt;134427579559520</title>
<path fill="none" stroke="black" d="M1314.05,-60C1322.72,-60 1331.6,-60 1339.82,-60"/>
<polygon fill="black" stroke="black" points="1339.82,-63.5 1349.82,-60 1339.82,-56.5 1339.82,-63.5"/>
</g>
<!-- 134427579556064 -->
<g id="node10" class="node">
<title>134427579556064</title>
<polygon fill="none" stroke="black" points="2062,-78 2035,-60 2062,-42 2089,-60 2062,-78"/>
<text text-anchor="middle" x="2062" y="-56.9" font-family="Times,serif" font-size="12.00">X</text>
</g>
<!-- 134427579559520&#45;&gt;134427579556064 -->
<g id="edge10" class="edge">
<title>134427579559520&#45;&gt;134427579556064</title>
<path fill="none" stroke="black" d="M1404.36,-60C1509.9,-60 1902.2,-60 2024.41,-60"/>
<polygon fill="black" stroke="black" points="2024.72,-63.5 2034.72,-60 2024.72,-56.5 2024.72,-63.5"/>
</g>
<!-- 134427579559568 -->
<g id="node11" class="node">
<title>134427579559568</title>
<polygon fill="none" stroke="black" points="1527,-36 1440,-36 1440,0 1527,0 1527,-36"/>
<text text-anchor="middle" x="1483.5" y="-14.9" font-family="Times,serif" font-size="12.00">Place order</text>
</g>
<!-- 134427579559520&#45;&gt;134427579559568 -->
<g id="edge11" class="edge">
<title>134427579559520&#45;&gt;134427579559568</title>
<path fill="none" stroke="black" d="M1394.33,-53.44C1404.12,-49.5 1417.18,-44.25 1430.23,-39.01"/>
<polygon fill="black" stroke="black" points="1431.72,-42.18 1439.69,-35.2 1429.11,-35.69 1431.72,-42.18"/>
</g>
<!-- 134427579556064&#45;&gt;134427579555056 -->
<g id="edge12" class="edge">
<title>134427579556064&#45;&gt;134427579555056</title>
<path fill="none" stroke="black" d="M2082.09,-64.99C2093.82,-68.06 2109.07,-72.04 2122.24,-75.48"/>
<polygon fill="black" stroke="black" points="2121.68,-78.96 2132.24,-78.1 2123.45,-72.18 2121.68,-78.96"/>
</g>
<!-- 134427579552416 -->
<g id="node12" class="node">
<title>134427579552416</title>
<polygon fill="none" stroke="black" points="1721,-36 1563,-36 1563,0 1721,0 1721,-36"/>
<text text-anchor="middle" x="1642" y="-14.9" font-family="Times,serif" font-size="12.00">Record order in system</text>
</g>
<!-- 134427579559568&#45;&gt;134427579552416 -->
<g id="edge13" class="edge">
<title>134427579559568&#45;&gt;134427579552416</title>
<path fill="none" stroke="black" d="M1527.26,-18C1535.29,-18 1543.94,-18 1552.77,-18"/>
<polygon fill="black" stroke="black" points="1552.78,-21.5 1562.78,-18 1552.78,-14.5 1552.78,-21.5"/>
</g>
<!-- 134427579556640 -->
<g id="node13" class="node">
<title>134427579556640</title>
<polygon fill="none" stroke="black" points="1999,-36 1757,-36 1757,0 1999,0 1999,-36"/>
<text text-anchor="middle" x="1878" y="-14.9" font-family="Times,serif" font-size="12.00">Send order confirmation to customer</text>
</g>
<!-- 134427579552416&#45;&gt;134427579556640 -->
<g id="edge14" class="edge">
<title>134427579552416&#45;&gt;134427579556640</title>
<path fill="none" stroke="black" d="M1721.24,-18C1729.46,-18 1737.96,-18 1746.55,-18"/>
<polygon fill="black" stroke="black" points="1746.68,-21.5 1756.68,-18 1746.68,-14.5 1746.68,-21.5"/>
</g>
<!-- 134427579556640&#45;&gt;134427579556064 -->
<g id="edge15" class="edge">
<title>134427579556640&#45;&gt;134427579556064</title>
<path fill="none" stroke="black" d="M1957.24,-36.06C1983.66,-42.15 2011.54,-48.59 2031.74,-53.25"/>
<polygon fill="black" stroke="black" points="2031.02,-56.67 2041.56,-55.51 2032.6,-49.85 2031.02,-56.67"/>
</g>
</g>
</svg>
