<?xml version="1.0" encoding="UTF-8" standalone="no"?>
<!DOCTYPE svg PUBLIC "-//W3C//DTD SVG 1.1//EN"
 "http://www.w3.org/Graphics/SVG/1.1/DTD/svg11.dtd">
<!-- Generated by graphviz version 2.43.0 (0)
 -->
<!-- Title: %3 Pages: 1 -->
<svg width="2169pt" height="110pt"
 viewBox="0.00 0.00 2169.00 110.00" xmlns="http://www.w3.org/2000/svg" xmlns:xlink="http://www.w3.org/1999/xlink">
<g id="graph0" class="graph" transform="scale(1 1) rotate(0) translate(4 106)">
<title>%3</title>
<polygon fill="white" stroke="transparent" points="-4,4 -4,-106 2165,-106 2165,4 -4,4"/>
<!-- 134427579122256 -->
<g id="node1" class="node">
<title>134427579122256</title>
<ellipse fill="green" stroke="black" cx="18" cy="-79" rx="18" ry="18"/>
</g>
<!-- 134427579121728 -->
<g id="node2" class="node">
<title>134427579121728</title>
<polygon fill="none" stroke="black" points="242,-97 72,-97 72,-61 242,-61 242,-97"/>
<text text-anchor="middle" x="157" y="-75.9" font-family="Times,serif" font-size="12.00">Receive customer inquiry</text>
</g>
<!-- 134427579122256&#45;&gt;134427579121728 -->
<g id="edge1" class="edge">
<title>134427579122256&#45;&gt;134427579121728</title>
<path fill="none" stroke="black" d="M36.07,-79C43.15,-79 51.96,-79 61.57,-79"/>
<polygon fill="black" stroke="black" points="61.83,-82.5 71.83,-79 61.83,-75.5 61.83,-82.5"/>
</g>
<!-- 134427579131280 -->
<g id="node3" class="node">
<title>134427579131280</title>
<polygon fill="none" stroke="black" points="472,-97 278,-97 278,-61 472,-61 472,-97"/>
<text text-anchor="middle" x="375" y="-75.9" font-family="Times,serif" font-size="12.00">Collect customer information</text>
</g>
<!-- 134427579121728&#45;&gt;134427579131280 -->
<g id="edge2" class="edge">
<title>134427579121728&#45;&gt;134427579131280</title>
<path fill="none" stroke="black" d="M242.13,-79C250.56,-79 259.19,-79 267.81,-79"/>
<polygon fill="black" stroke="black" points="267.91,-82.5 277.91,-79 267.91,-75.5 267.91,-82.5"/>
</g>
<!-- 134427720804880 -->
<g id="node4" class="node">
<title>134427720804880</title>
<polygon fill="none" stroke="black" points="770,-97 508,-97 508,-61 770,-61 770,-97"/>
<text text-anchor="middle" x="639" y="-75.9" font-family="Times,serif" font-size="12.00">Address customer concerns or questions</text>
</g>
<!-- 134427579131280&#45;&gt;134427720804880 -->
<g id="edge3" class="edge">
<title>134427579131280&#45;&gt;134427720804880</title>
<path fill="none" stroke="black" d="M472.07,-79C480.47,-79 489.07,-79 497.73,-79"/>
<polygon fill="black" stroke="black" points="497.91,-82.5 507.91,-79 497.91,-75.5 497.91,-82.5"/>
</g>
<!-- 134430778242096 -->
<g id="node5" class="node">
<title>134430778242096</title>
<polygon fill="none" stroke="black" points="833,-97 806,-79 833,-61 860,-79 833,-97"/>
<text text-anchor="middle" x="833" y="-75.9" font-family="Times,serif" font-size="12.00">X</text>
</g>
<!-- 134427720804880&#45;&gt;134430778242096 -->
<g id="edge4" class="edge">
<title>134427720804880&#45;&gt;134430778242096</title>
<path fill="none" stroke="black" d="M770.19,-79C779.3,-79 787.93,-79 795.7,-79"/>
<polygon fill="black" stroke="black" points="795.72,-82.5 805.72,-79 795.72,-75.5 795.72,-82.5"/>
</g>
<!-- 134427584115088 -->
<g id="node6" class="node">
<title>134427584115088</title>
<polygon fill="none" stroke="black" points="2062,-82 2035,-64 2062,-46 2089,-64 2062,-82"/>
<text text-anchor="middle" x="2062" y="-60.9" font-family="Times,serif" font-size="12.00">X</text>
</g>
<!-- 134430778242096&#45;&gt;134427584115088 -->
<g id="edge5" class="edge">
<title>134430778242096&#45;&gt;134427584115088</title>
<path fill="none" stroke="black" d="M857.2,-81.12C921.51,-86.82 1107.54,-102 1262.5,-102 1262.5,-102 1262.5,-102 1643,-102 1801.68,-102 1841.57,-94.88 1999,-75 2009.46,-73.68 2020.85,-71.79 2030.97,-69.95"/>
<polygon fill="black" stroke="black" points="2031.79,-73.36 2040.97,-68.08 2030.5,-66.48 2031.79,-73.36"/>
</g>
<!-- 134427577877072 -->
<g id="node7" class="node">
<title>134427577877072</title>
<polygon fill="none" stroke="black" points="1177,-74 896,-74 896,-38 1177,-38 1177,-74"/>
<text text-anchor="middle" x="1036.5" y="-52.9" font-family="Times,serif" font-size="12.00">Guide customer in selecting product/service</text>
</g>
<!-- 134430778242096&#45;&gt;134427577877072 -->
<g id="edge6" class="edge">
<title>134430778242096&#45;&gt;134427577877072</title>
<path fill="none" stroke="black" d="M856.33,-76.45C864.58,-75.51 874.65,-74.36 885.78,-73.09"/>
<polygon fill="black" stroke="black" points="886.27,-76.56 895.81,-71.94 885.48,-69.6 886.27,-76.56"/>
</g>
<!-- 134427579134688 -->
<g id="node13" class="node">
<title>134427579134688</title>
<ellipse fill="orange" stroke="black" cx="2143" cy="-64" rx="18" ry="18"/>
</g>
<!-- 134427584115088&#45;&gt;134427579134688 -->
<g id="edge8" class="edge">
<title>134427584115088&#45;&gt;134427579134688</title>
<path fill="none" stroke="black" d="M2089.31,-64C2097.42,-64 2106.37,-64 2114.56,-64"/>
<polygon fill="black" stroke="black" points="2114.75,-67.5 2124.75,-64 2114.75,-60.5 2114.75,-67.5"/>
</g>
<!-- 134427577883792 -->
<g id="node8" class="node">
<title>134427577883792</title>
<polygon fill="none" stroke="black" points="1314,-74 1213,-74 1213,-38 1314,-38 1314,-74"/>
<text text-anchor="middle" x="1263.5" y="-52.9" font-family="Times,serif" font-size="12.00">Provide quote</text>
</g>
<!-- 134427577877072&#45;&gt;134427577883792 -->
<g id="edge7" class="edge">
<title>134427577877072&#45;&gt;134427577883792</title>
<path fill="none" stroke="black" d="M1177.12,-56C1185.94,-56 1194.53,-56 1202.64,-56"/>
<polygon fill="black" stroke="black" points="1202.65,-59.5 1212.65,-56 1202.65,-52.5 1202.65,-59.5"/>
</g>
<!-- 134427579122976 -->
<g id="node9" class="node">
<title>134427579122976</title>
<polygon fill="none" stroke="black" points="1377,-74 1350,-56 1377,-38 1404,-56 1377,-74"/>
<text text-anchor="middle" x="1377" y="-52.9" font-family="Times,serif" font-size="12.00">X</text>
</g>
<!-- 134427577883792&#45;&gt;134427579122976 -->
<g id="edge9" class="edge">
<title>134427577883792&#45;&gt;134427579122976</title>
<path fill="none" stroke="black" d="M1314.05,-56C1322.72,-56 1331.6,-56 1339.82,-56"/>
<polygon fill="black" stroke="black" points="1339.82,-59.5 1349.82,-56 1339.82,-52.5 1339.82,-59.5"/>
</g>
<!-- 134427579122976&#45;&gt;134427584115088 -->
<g id="edge10" class="edge">
<title>134427579122976&#45;&gt;134427584115088</title>
<path fill="none" stroke="black" d="M1403.94,-56.3C1509.08,-57.54 1903.65,-62.16 2025.16,-63.58"/>
<polygon fill="black" stroke="black" points="2025.36,-67.08 2035.4,-63.7 2025.44,-60.08 2025.36,-67.08"/>
</g>
<!-- 134427578084624 -->
<g id="node10" class="node">
<title>134427578084624</title>
<polygon fill="none" stroke="black" points="1527,-36 1440,-36 1440,0 1527,0 1527,-36"/>
<text text-anchor="middle" x="1483.5" y="-14.9" font-family="Times,serif" font-size="12.00">Place order</text>
</g>
<!-- 134427579122976&#45;&gt;134427578084624 -->
<g id="edge11" class="edge">
<title>134427579122976&#45;&gt;134427578084624</title>
<path fill="none" stroke="black" d="M1395.26,-49.73C1404.96,-46.2 1417.64,-41.59 1430.31,-36.98"/>
<polygon fill="black" stroke="black" points="1431.75,-40.18 1439.95,-33.47 1429.36,-33.6 1431.75,-40.18"/>
</g>
<!-- 134427578089184 -->
<g id="node11" class="node">
<title>134427578089184</title>
<polygon fill="none" stroke="black" points="1721,-36 1563,-36 1563,0 1721,0 1721,-36"/>
<text text-anchor="middle" x="1642" y="-14.9" font-family="Times,serif" font-size="12.00">Record order in system</text>
</g>
<!-- 134427578084624&#45;&gt;134427578089184 -->
<g id="edge12" class="edge">
<title>134427578084624&#45;&gt;134427578089184</title>
<path fill="none" stroke="black" d="M1527.26,-18C1535.29,-18 1543.94,-18 1552.77,-18"/>
<polygon fill="black" stroke="black" points="1552.78,-21.5 1562.78,-18 1552.78,-14.5 1552.78,-21.5"/>
</g>
<!-- 134427577886096 -->
<g id="node12" class="node">
<title>134427577886096</title>
<polygon fill="none" stroke="black" points="1999,-36 1757,-36 1757,0 1999,0 1999,-36"/>
<text text-anchor="middle" x="1878" y="-14.9" font-family="Times,serif" font-size="12.00">Send order confirmation to customer</text>
</g>
<!-- 134427578089184&#45;&gt;134427577886096 -->
<g id="edge13" class="edge">
<title>134427578089184&#45;&gt;134427577886096</title>
<path fill="none" stroke="black" d="M1721.24,-18C1729.46,-18 1737.96,-18 1746.55,-18"/>
<polygon fill="black" stroke="black" points="1746.68,-21.5 1756.68,-18 1746.68,-14.5 1746.68,-21.5"/>
</g>
<!-- 134427577886096&#45;&gt;134427584115088 -->
<g id="edge14" class="edge">
<title>134427577886096&#45;&gt;134427584115088</title>
<path fill="none" stroke="black" d="M1950.41,-36.05C1978.95,-43.26 2010.19,-51.16 2032.17,-56.71"/>
<polygon fill="black" stroke="black" points="2031.31,-60.11 2041.86,-59.16 2033.03,-53.32 2031.31,-60.11"/>
</g>
</g>
</svg>
