<?xml version="1.0" encoding="UTF-8" standalone="no"?>
<!DOCTYPE svg PUBLIC "-//W3C//DTD SVG 1.1//EN"
 "http://www.w3.org/Graphics/SVG/1.1/DTD/svg11.dtd">
<!-- Generated by graphviz version 2.43.0 (0)
 -->
<!-- Title: %3 Pages: 1 -->
<svg width="2209pt" height="136pt"
 viewBox="0.00 0.00 2209.00 136.00" xmlns="http://www.w3.org/2000/svg" xmlns:xlink="http://www.w3.org/1999/xlink">
<g id="graph0" class="graph" transform="scale(1 1) rotate(0) translate(4 132)">
<title>%3</title>
<polygon fill="white" stroke="transparent" points="-4,4 -4,-132 2205,-132 2205,4 -4,4"/>
<!-- 134427579554480 -->
<g id="node1" class="node">
<title>134427579554480</title>
<ellipse fill="green" stroke="black" cx="18" cy="-83" rx="18" ry="18"/>
</g>
<!-- 134427579549920 -->
<g id="node2" class="node">
<title>134427579549920</title>
<polygon fill="none" stroke="black" points="242,-101 72,-101 72,-65 242,-65 242,-101"/>
<text text-anchor="middle" x="157" y="-79.9" font-family="Times,serif" font-size="12.00">Receive customer inquiry</text>
</g>
<!-- 134427579554480&#45;&gt;134427579549920 -->
<g id="edge1" class="edge">
<title>134427579554480&#45;&gt;134427579549920</title>
<path fill="none" stroke="black" d="M36.07,-83C43.15,-83 51.96,-83 61.57,-83"/>
<polygon fill="black" stroke="black" points="61.83,-86.5 71.83,-83 61.83,-79.5 61.83,-86.5"/>
</g>
<!-- 134427579550592 -->
<g id="node3" class="node">
<title>134427579550592</title>
<polygon fill="none" stroke="black" points="305,-101 278,-83 305,-65 332,-83 305,-101"/>
<text text-anchor="middle" x="305" y="-79.9" font-family="Times,serif" font-size="12.00">+</text>
</g>
<!-- 134427579549920&#45;&gt;134427579550592 -->
<g id="edge2" class="edge">
<title>134427579549920&#45;&gt;134427579550592</title>
<path fill="none" stroke="black" d="M242.08,-83C250.97,-83 259.64,-83 267.54,-83"/>
<polygon fill="black" stroke="black" points="267.78,-86.5 277.78,-83 267.78,-79.5 267.78,-86.5"/>
</g>
<!-- 134427579559136 -->
<g id="node4" class="node">
<title>134427579559136</title>
<polygon fill="none" stroke="black" points="596,-128 402,-128 402,-92 596,-92 596,-128"/>
<text text-anchor="middle" x="499" y="-106.9" font-family="Times,serif" font-size="12.00">Collect customer information</text>
</g>
<!-- 134427579550592&#45;&gt;134427579559136 -->
<g id="edge3" class="edge">
<title>134427579550592&#45;&gt;134427579559136</title>
<path fill="none" stroke="black" d="M327.65,-86.04C343.86,-88.32 367.34,-91.63 391.73,-95.06"/>
<polygon fill="black" stroke="black" points="391.45,-98.55 401.84,-96.48 392.42,-91.62 391.45,-98.55"/>
</g>
<!-- 134427579552080 -->
<g id="node5" class="node">
<title>134427579552080</title>
<polygon fill="none" stroke="black" points="630,-74 368,-74 368,-38 630,-38 630,-74"/>
<text text-anchor="middle" x="499" y="-52.9" font-family="Times,serif" font-size="12.00">Address customer concerns or questions</text>
</g>
<!-- 134427579550592&#45;&gt;134427579552080 -->
<g id="edge4" class="edge">
<title>134427579550592&#45;&gt;134427579552080</title>
<path fill="none" stroke="black" d="M327.65,-79.96C336.55,-78.7 347.65,-77.14 359.88,-75.42"/>
<polygon fill="black" stroke="black" points="360.5,-78.87 369.92,-74.01 359.53,-71.94 360.5,-78.87"/>
</g>
<!-- 134427579550208 -->
<g id="node6" class="node">
<title>134427579550208</title>
<polygon fill="none" stroke="black" points="693,-101 666,-83 693,-65 720,-83 693,-101"/>
<text text-anchor="middle" x="693" y="-79.9" font-family="Times,serif" font-size="12.00">+</text>
</g>
<!-- 134427579559136&#45;&gt;134427579550208 -->
<g id="edge5" class="edge">
<title>134427579559136&#45;&gt;134427579550208</title>
<path fill="none" stroke="black" d="M596,-96.5C619.24,-93.23 642.49,-89.96 660.28,-87.46"/>
<polygon fill="black" stroke="black" points="660.93,-90.9 670.35,-86.04 659.96,-83.97 660.93,-90.9"/>
</g>
<!-- 134427579552080&#45;&gt;134427579550208 -->
<g id="edge6" class="edge">
<title>134427579552080&#45;&gt;134427579550208</title>
<path fill="none" stroke="black" d="M628.07,-74.01C639.86,-75.67 650.93,-77.22 660.43,-78.56"/>
<polygon fill="black" stroke="black" points="660.06,-82.04 670.45,-79.97 661.03,-75.11 660.06,-82.04"/>
</g>
<!-- 134427579550640 -->
<g id="node7" class="node">
<title>134427579550640</title>
<polygon fill="none" stroke="black" points="783,-101 756,-83 783,-65 810,-83 783,-101"/>
<text text-anchor="middle" x="783" y="-79.9" font-family="Times,serif" font-size="12.00">X</text>
</g>
<!-- 134427579550208&#45;&gt;134427579550640 -->
<g id="edge7" class="edge">
<title>134427579550208&#45;&gt;134427579550640</title>
<path fill="none" stroke="black" d="M720.4,-83C728.39,-83 737.31,-83 745.82,-83"/>
<polygon fill="black" stroke="black" points="745.92,-86.5 755.92,-83 745.92,-79.5 745.92,-86.5"/>
</g>
<!-- 134427579551840 -->
<g id="node8" class="node">
<title>134427579551840</title>
<polygon fill="none" stroke="black" points="2102,-101 2075,-83 2102,-65 2129,-83 2102,-101"/>
<text text-anchor="middle" x="2102" y="-79.9" font-family="Times,serif" font-size="12.00">X</text>
</g>
<!-- 134427579550640&#45;&gt;134427579551840 -->
<g id="edge8" class="edge">
<title>134427579550640&#45;&gt;134427579551840</title>
<path fill="none" stroke="black" d="M807.2,-85.12C871.51,-90.82 1057.54,-106 1212.5,-106 1212.5,-106 1212.5,-106 1829,-106 1916.38,-106 2018.99,-94.07 2069.57,-87.39"/>
<polygon fill="black" stroke="black" points="2070.1,-90.85 2079.54,-86.05 2069.17,-83.92 2070.1,-90.85"/>
</g>
<!-- 134427579556544 -->
<g id="node9" class="node">
<title>134427579556544</title>
<polygon fill="none" stroke="black" points="1127,-78 846,-78 846,-42 1127,-42 1127,-78"/>
<text text-anchor="middle" x="986.5" y="-56.9" font-family="Times,serif" font-size="12.00">Guide customer in selecting product/service</text>
</g>
<!-- 134427579550640&#45;&gt;134427579556544 -->
<g id="edge9" class="edge">
<title>134427579550640&#45;&gt;134427579556544</title>
<path fill="none" stroke="black" d="M806.33,-80.45C814.58,-79.51 824.65,-78.36 835.78,-77.09"/>
<polygon fill="black" stroke="black" points="836.27,-80.56 845.81,-75.94 835.48,-73.6 836.27,-80.56"/>
</g>
<!-- 134427579550784 -->
<g id="node16" class="node">
<title>134427579550784</title>
<ellipse fill="orange" stroke="black" cx="2183" cy="-83" rx="18" ry="18"/>
</g>
<!-- 134427579551840&#45;&gt;134427579550784 -->
<g id="edge11" class="edge">
<title>134427579551840&#45;&gt;134427579550784</title>
<path fill="none" stroke="black" d="M2129.31,-83C2137.42,-83 2146.37,-83 2154.56,-83"/>
<polygon fill="black" stroke="black" points="2154.75,-86.5 2164.75,-83 2154.75,-79.5 2154.75,-86.5"/>
</g>
<!-- 134427579550928 -->
<g id="node10" class="node">
<title>134427579550928</title>
<polygon fill="none" stroke="black" points="1264,-78 1163,-78 1163,-42 1264,-42 1264,-78"/>
<text text-anchor="middle" x="1213.5" y="-56.9" font-family="Times,serif" font-size="12.00">Provide quote</text>
</g>
<!-- 134427579556544&#45;&gt;134427579550928 -->
<g id="edge10" class="edge">
<title>134427579556544&#45;&gt;134427579550928</title>
<path fill="none" stroke="black" d="M1127.12,-60C1135.94,-60 1144.53,-60 1152.64,-60"/>
<polygon fill="black" stroke="black" points="1152.65,-63.5 1162.65,-60 1152.65,-56.5 1152.65,-63.5"/>
</g>
<!-- 134427579554048 -->
<g id="node11" class="node">
<title>134427579554048</title>
<polygon fill="none" stroke="black" points="1327,-78 1300,-60 1327,-42 1354,-60 1327,-78"/>
<text text-anchor="middle" x="1327" y="-56.9" font-family="Times,serif" font-size="12.00">X</text>
</g>
<!-- 134427579550928&#45;&gt;134427579554048 -->
<g id="edge12" class="edge">
<title>134427579550928&#45;&gt;134427579554048</title>
<path fill="none" stroke="black" d="M1264.05,-60C1272.72,-60 1281.6,-60 1289.82,-60"/>
<polygon fill="black" stroke="black" points="1289.82,-63.5 1299.82,-60 1289.82,-56.5 1289.82,-63.5"/>
</g>
<!-- 134427579563024 -->
<g id="node12" class="node">
<title>134427579563024</title>
<polygon fill="none" stroke="black" points="2012,-78 1985,-60 2012,-42 2039,-60 2012,-78"/>
<text text-anchor="middle" x="2012" y="-56.9" font-family="Times,serif" font-size="12.00">X</text>
</g>
<!-- 134427579554048&#45;&gt;134427579563024 -->
<g id="edge13" class="edge">
<title>134427579554048&#45;&gt;134427579563024</title>
<path fill="none" stroke="black" d="M1354.36,-60C1459.9,-60 1852.2,-60 1974.41,-60"/>
<polygon fill="black" stroke="black" points="1974.72,-63.5 1984.72,-60 1974.72,-56.5 1974.72,-63.5"/>
</g>
<!-- 134427579547808 -->
<g id="node13" class="node">
<title>134427579547808</title>
<polygon fill="none" stroke="black" points="1477,-36 1390,-36 1390,0 1477,0 1477,-36"/>
<text text-anchor="middle" x="1433.5" y="-14.9" font-family="Times,serif" font-size="12.00">Place order</text>
</g>
<!-- 134427579554048&#45;&gt;134427579547808 -->
<g id="edge14" class="edge">
<title>134427579554048&#45;&gt;134427579547808</title>
<path fill="none" stroke="black" d="M1344.33,-53.44C1354.12,-49.5 1367.18,-44.25 1380.23,-39.01"/>
<polygon fill="black" stroke="black" points="1381.72,-42.18 1389.69,-35.2 1379.11,-35.69 1381.72,-42.18"/>
</g>
<!-- 134427579563024&#45;&gt;134427579551840 -->
<g id="edge15" class="edge">
<title>134427579563024&#45;&gt;134427579551840</title>
<path fill="none" stroke="black" d="M2032.09,-64.99C2043.82,-68.06 2059.07,-72.04 2072.24,-75.48"/>
<polygon fill="black" stroke="black" points="2071.68,-78.96 2082.24,-78.1 2073.45,-72.18 2071.68,-78.96"/>
</g>
<!-- 134427579563888 -->
<g id="node14" class="node">
<title>134427579563888</title>
<polygon fill="none" stroke="black" points="1671,-36 1513,-36 1513,0 1671,0 1671,-36"/>
<text text-anchor="middle" x="1592" y="-14.9" font-family="Times,serif" font-size="12.00">Record order in system</text>
</g>
<!-- 134427579547808&#45;&gt;134427579563888 -->
<g id="edge16" class="edge">
<title>134427579547808&#45;&gt;134427579563888</title>
<path fill="none" stroke="black" d="M1477.26,-18C1485.29,-18 1493.94,-18 1502.77,-18"/>
<polygon fill="black" stroke="black" points="1502.78,-21.5 1512.78,-18 1502.78,-14.5 1502.78,-21.5"/>
</g>
<!-- 134427579550880 -->
<g id="node15" class="node">
<title>134427579550880</title>
<polygon fill="none" stroke="black" points="1949,-36 1707,-36 1707,0 1949,0 1949,-36"/>
<text text-anchor="middle" x="1828" y="-14.9" font-family="Times,serif" font-size="12.00">Send order confirmation to customer</text>
</g>
<!-- 134427579563888&#45;&gt;134427579550880 -->
<g id="edge17" class="edge">
<title>134427579563888&#45;&gt;134427579550880</title>
<path fill="none" stroke="black" d="M1671.24,-18C1679.46,-18 1687.96,-18 1696.55,-18"/>
<polygon fill="black" stroke="black" points="1696.68,-21.5 1706.68,-18 1696.68,-14.5 1696.68,-21.5"/>
</g>
<!-- 134427579550880&#45;&gt;134427579563024 -->
<g id="edge18" class="edge">
<title>134427579550880&#45;&gt;134427579563024</title>
<path fill="none" stroke="black" d="M1907.24,-36.06C1933.66,-42.15 1961.54,-48.59 1981.74,-53.25"/>
<polygon fill="black" stroke="black" points="1981.02,-56.67 1991.56,-55.51 1982.6,-49.85 1981.02,-56.67"/>
</g>
</g>
</svg>
