<?xml version="1.0" encoding="UTF-8" standalone="no"?>
<!DOCTYPE svg PUBLIC "-//W3C//DTD SVG 1.1//EN"
 "http://www.w3.org/Graphics/SVG/1.1/DTD/svg11.dtd">
<!-- Generated by graphviz version 2.43.0 (0)
 -->
<!-- Title: %3 Pages: 1 -->
<svg width="1892pt" height="136pt"
 viewBox="0.00 0.00 1892.00 136.00" xmlns="http://www.w3.org/2000/svg" xmlns:xlink="http://www.w3.org/1999/xlink">
<g id="graph0" class="graph" transform="scale(1 1) rotate(0) translate(4 132)">
<title>%3</title>
<polygon fill="white" stroke="transparent" points="-4,4 -4,-132 1888,-132 1888,4 -4,4"/>
<!-- 134427580436672 -->
<g id="node1" class="node">
<title>134427580436672</title>
<ellipse fill="green" stroke="black" cx="18" cy="-83" rx="18" ry="18"/>
</g>
<!-- 134427580433792 -->
<g id="node2" class="node">
<title>134427580433792</title>
<polygon fill="none" stroke="black" points="242,-101 72,-101 72,-65 242,-65 242,-101"/>
<text text-anchor="middle" x="157" y="-79.9" font-family="Times,serif" font-size="12.00">Receive customer inquiry</text>
</g>
<!-- 134427580436672&#45;&gt;134427580433792 -->
<g id="edge1" class="edge">
<title>134427580436672&#45;&gt;134427580433792</title>
<path fill="none" stroke="black" d="M36.07,-83C43.15,-83 51.96,-83 61.57,-83"/>
<polygon fill="black" stroke="black" points="61.83,-86.5 71.83,-83 61.83,-79.5 61.83,-86.5"/>
</g>
<!-- 134427580438832 -->
<g id="node3" class="node">
<title>134427580438832</title>
<polygon fill="none" stroke="black" points="305,-101 278,-83 305,-65 332,-83 305,-101"/>
<text text-anchor="middle" x="305" y="-79.9" font-family="Times,serif" font-size="12.00">+</text>
</g>
<!-- 134427580433792&#45;&gt;134427580438832 -->
<g id="edge2" class="edge">
<title>134427580433792&#45;&gt;134427580438832</title>
<path fill="none" stroke="black" d="M242.08,-83C250.97,-83 259.64,-83 267.54,-83"/>
<polygon fill="black" stroke="black" points="267.78,-86.5 277.78,-83 267.78,-79.5 267.78,-86.5"/>
</g>
<!-- 134427580433648 -->
<g id="node4" class="node">
<title>134427580433648</title>
<polygon fill="none" stroke="black" points="630,-128 368,-128 368,-92 630,-92 630,-128"/>
<text text-anchor="middle" x="499" y="-106.9" font-family="Times,serif" font-size="12.00">Address customer concerns or questions</text>
</g>
<!-- 134427580438832&#45;&gt;134427580433648 -->
<g id="edge3" class="edge">
<title>134427580438832&#45;&gt;134427580433648</title>
<path fill="none" stroke="black" d="M327.65,-86.04C336.55,-87.3 347.65,-88.86 359.88,-90.58"/>
<polygon fill="black" stroke="black" points="359.53,-94.06 369.92,-91.99 360.5,-87.13 359.53,-94.06"/>
</g>
<!-- 134427580437152 -->
<g id="node5" class="node">
<title>134427580437152</title>
<polygon fill="none" stroke="black" points="596,-74 402,-74 402,-38 596,-38 596,-74"/>
<text text-anchor="middle" x="499" y="-52.9" font-family="Times,serif" font-size="12.00">Collect customer information</text>
</g>
<!-- 134427580438832&#45;&gt;134427580437152 -->
<g id="edge4" class="edge">
<title>134427580438832&#45;&gt;134427580437152</title>
<path fill="none" stroke="black" d="M327.65,-79.96C343.86,-77.68 367.34,-74.37 391.73,-70.94"/>
<polygon fill="black" stroke="black" points="392.42,-74.38 401.84,-69.52 391.45,-67.45 392.42,-74.38"/>
</g>
<!-- 134427580435712 -->
<g id="node6" class="node">
<title>134427580435712</title>
<polygon fill="none" stroke="black" points="693,-101 666,-83 693,-65 720,-83 693,-101"/>
<text text-anchor="middle" x="693" y="-79.9" font-family="Times,serif" font-size="12.00">+</text>
</g>
<!-- 134427580433648&#45;&gt;134427580435712 -->
<g id="edge5" class="edge">
<title>134427580433648&#45;&gt;134427580435712</title>
<path fill="none" stroke="black" d="M628.07,-91.99C639.86,-90.33 650.93,-88.78 660.43,-87.44"/>
<polygon fill="black" stroke="black" points="661.03,-90.89 670.45,-86.03 660.06,-83.96 661.03,-90.89"/>
</g>
<!-- 134427580437152&#45;&gt;134427580435712 -->
<g id="edge6" class="edge">
<title>134427580437152&#45;&gt;134427580435712</title>
<path fill="none" stroke="black" d="M596,-69.5C619.24,-72.77 642.49,-76.04 660.28,-78.54"/>
<polygon fill="black" stroke="black" points="659.96,-82.03 670.35,-79.96 660.93,-75.1 659.96,-82.03"/>
</g>
<!-- 134427580437056 -->
<g id="node7" class="node">
<title>134427580437056</title>
<polygon fill="none" stroke="black" points="783,-101 756,-83 783,-65 810,-83 783,-101"/>
<text text-anchor="middle" x="783" y="-79.9" font-family="Times,serif" font-size="12.00">X</text>
</g>
<!-- 134427580435712&#45;&gt;134427580437056 -->
<g id="edge7" class="edge">
<title>134427580435712&#45;&gt;134427580437056</title>
<path fill="none" stroke="black" d="M720.4,-83C728.39,-83 737.31,-83 745.82,-83"/>
<polygon fill="black" stroke="black" points="745.92,-86.5 755.92,-83 745.92,-79.5 745.92,-86.5"/>
</g>
<!-- 134427580444160 -->
<g id="node8" class="node">
<title>134427580444160</title>
<polygon fill="none" stroke="black" points="1785,-101 1758,-83 1785,-65 1812,-83 1785,-101"/>
<text text-anchor="middle" x="1785" y="-79.9" font-family="Times,serif" font-size="12.00">X</text>
</g>
<!-- 134427580437056&#45;&gt;134427580444160 -->
<g id="edge8" class="edge">
<title>134427580437056&#45;&gt;134427580444160</title>
<path fill="none" stroke="black" d="M804.71,-86.54C844.28,-93 933.41,-106 1009,-106 1009,-106 1009,-106 1512,-106 1599.38,-106 1701.99,-94.07 1752.57,-87.39"/>
<polygon fill="black" stroke="black" points="1753.1,-90.85 1762.54,-86.05 1752.17,-83.92 1753.1,-90.85"/>
</g>
<!-- 134427580850352 -->
<g id="node9" class="node">
<title>134427580850352</title>
<polygon fill="none" stroke="black" points="947,-78 846,-78 846,-42 947,-42 947,-78"/>
<text text-anchor="middle" x="896.5" y="-56.9" font-family="Times,serif" font-size="12.00">Provide quote</text>
</g>
<!-- 134427580437056&#45;&gt;134427580850352 -->
<g id="edge9" class="edge">
<title>134427580437056&#45;&gt;134427580850352</title>
<path fill="none" stroke="black" d="M803.93,-78.89C812.95,-77.03 824.12,-74.72 835.53,-72.37"/>
<polygon fill="black" stroke="black" points="836.49,-75.75 845.58,-70.3 835.08,-68.89 836.49,-75.75"/>
</g>
<!-- 134427580434272 -->
<g id="node15" class="node">
<title>134427580434272</title>
<ellipse fill="orange" stroke="black" cx="1866" cy="-83" rx="18" ry="18"/>
</g>
<!-- 134427580444160&#45;&gt;134427580434272 -->
<g id="edge11" class="edge">
<title>134427580444160&#45;&gt;134427580434272</title>
<path fill="none" stroke="black" d="M1812.31,-83C1820.42,-83 1829.37,-83 1837.56,-83"/>
<polygon fill="black" stroke="black" points="1837.75,-86.5 1847.75,-83 1837.75,-79.5 1837.75,-86.5"/>
</g>
<!-- 134427580849248 -->
<g id="node10" class="node">
<title>134427580849248</title>
<polygon fill="none" stroke="black" points="1010,-78 983,-60 1010,-42 1037,-60 1010,-78"/>
<text text-anchor="middle" x="1010" y="-56.9" font-family="Times,serif" font-size="12.00">X</text>
</g>
<!-- 134427580850352&#45;&gt;134427580849248 -->
<g id="edge10" class="edge">
<title>134427580850352&#45;&gt;134427580849248</title>
<path fill="none" stroke="black" d="M947.05,-60C955.72,-60 964.6,-60 972.82,-60"/>
<polygon fill="black" stroke="black" points="972.82,-63.5 982.82,-60 972.82,-56.5 972.82,-63.5"/>
</g>
<!-- 134427580852896 -->
<g id="node11" class="node">
<title>134427580852896</title>
<polygon fill="none" stroke="black" points="1695,-78 1668,-60 1695,-42 1722,-60 1695,-78"/>
<text text-anchor="middle" x="1695" y="-56.9" font-family="Times,serif" font-size="12.00">X</text>
</g>
<!-- 134427580849248&#45;&gt;134427580852896 -->
<g id="edge12" class="edge">
<title>134427580849248&#45;&gt;134427580852896</title>
<path fill="none" stroke="black" d="M1037.36,-60C1142.9,-60 1535.2,-60 1657.41,-60"/>
<polygon fill="black" stroke="black" points="1657.72,-63.5 1667.72,-60 1657.72,-56.5 1657.72,-63.5"/>
</g>
<!-- 134430768046928 -->
<g id="node12" class="node">
<title>134430768046928</title>
<polygon fill="none" stroke="black" points="1160,-36 1073,-36 1073,0 1160,0 1160,-36"/>
<text text-anchor="middle" x="1116.5" y="-14.9" font-family="Times,serif" font-size="12.00">Place order</text>
</g>
<!-- 134427580849248&#45;&gt;134430768046928 -->
<g id="edge13" class="edge">
<title>134427580849248&#45;&gt;134430768046928</title>
<path fill="none" stroke="black" d="M1027.33,-53.44C1037.12,-49.5 1050.18,-44.25 1063.23,-39.01"/>
<polygon fill="black" stroke="black" points="1064.72,-42.18 1072.69,-35.2 1062.11,-35.69 1064.72,-42.18"/>
</g>
<!-- 134427580852896&#45;&gt;134427580444160 -->
<g id="edge14" class="edge">
<title>134427580852896&#45;&gt;134427580444160</title>
<path fill="none" stroke="black" d="M1715.09,-64.99C1726.82,-68.06 1742.07,-72.04 1755.24,-75.48"/>
<polygon fill="black" stroke="black" points="1754.68,-78.96 1765.24,-78.1 1756.45,-72.18 1754.68,-78.96"/>
</g>
<!-- 134427579554576 -->
<g id="node13" class="node">
<title>134427579554576</title>
<polygon fill="none" stroke="black" points="1354,-36 1196,-36 1196,0 1354,0 1354,-36"/>
<text text-anchor="middle" x="1275" y="-14.9" font-family="Times,serif" font-size="12.00">Record order in system</text>
</g>
<!-- 134430768046928&#45;&gt;134427579554576 -->
<g id="edge15" class="edge">
<title>134430768046928&#45;&gt;134427579554576</title>
<path fill="none" stroke="black" d="M1160.26,-18C1168.29,-18 1176.94,-18 1185.77,-18"/>
<polygon fill="black" stroke="black" points="1185.78,-21.5 1195.78,-18 1185.78,-14.5 1185.78,-21.5"/>
</g>
<!-- 134430768051104 -->
<g id="node14" class="node">
<title>134430768051104</title>
<polygon fill="none" stroke="black" points="1632,-36 1390,-36 1390,0 1632,0 1632,-36"/>
<text text-anchor="middle" x="1511" y="-14.9" font-family="Times,serif" font-size="12.00">Send order confirmation to customer</text>
</g>
<!-- 134427579554576&#45;&gt;134430768051104 -->
<g id="edge16" class="edge">
<title>134427579554576&#45;&gt;134430768051104</title>
<path fill="none" stroke="black" d="M1354.24,-18C1362.46,-18 1370.96,-18 1379.55,-18"/>
<polygon fill="black" stroke="black" points="1379.68,-21.5 1389.68,-18 1379.68,-14.5 1379.68,-21.5"/>
</g>
<!-- 134430768051104&#45;&gt;134427580852896 -->
<g id="edge17" class="edge">
<title>134430768051104&#45;&gt;134427580852896</title>
<path fill="none" stroke="black" d="M1590.24,-36.06C1616.66,-42.15 1644.54,-48.59 1664.74,-53.25"/>
<polygon fill="black" stroke="black" points="1664.02,-56.67 1674.56,-55.51 1665.6,-49.85 1664.02,-56.67"/>
</g>
</g>
</svg>
