<?xml version="1.0" encoding="UTF-8" standalone="no"?>
<!DOCTYPE svg PUBLIC "-//W3C//DTD SVG 1.1//EN"
 "http://www.w3.org/Graphics/SVG/1.1/DTD/svg11.dtd">
<!-- Generated by graphviz version 2.43.0 (0)
 -->
<!-- Title: %3 Pages: 1 -->
<svg width="2375pt" height="136pt"
 viewBox="0.00 0.00 2375.00 136.00" xmlns="http://www.w3.org/2000/svg" xmlns:xlink="http://www.w3.org/1999/xlink">
<g id="graph0" class="graph" transform="scale(1 1) rotate(0) translate(4 132)">
<title>%3</title>
<polygon fill="white" stroke="transparent" points="-4,4 -4,-132 2371,-132 2371,4 -4,4"/>
<!-- 134426179470336 -->
<g id="node1" class="node">
<title>134426179470336</title>
<ellipse fill="green" stroke="black" cx="18" cy="-83" rx="18" ry="18"/>
</g>
<!-- 134426179476288 -->
<g id="node2" class="node">
<title>134426179476288</title>
<polygon fill="none" stroke="black" points="242,-101 72,-101 72,-65 242,-65 242,-101"/>
<text text-anchor="middle" x="157" y="-79.9" font-family="Times,serif" font-size="12.00">Receive customer inquiry</text>
</g>
<!-- 134426179470336&#45;&gt;134426179476288 -->
<g id="edge1" class="edge">
<title>134426179470336&#45;&gt;134426179476288</title>
<path fill="none" stroke="black" d="M36.07,-83C43.15,-83 51.96,-83 61.57,-83"/>
<polygon fill="black" stroke="black" points="61.83,-86.5 71.83,-83 61.83,-79.5 61.83,-86.5"/>
</g>
<!-- 134426179483392 -->
<g id="node3" class="node">
<title>134426179483392</title>
<polygon fill="none" stroke="black" points="305,-101 278,-83 305,-65 332,-83 305,-101"/>
<text text-anchor="middle" x="305" y="-79.9" font-family="Times,serif" font-size="12.00">+</text>
</g>
<!-- 134426179476288&#45;&gt;134426179483392 -->
<g id="edge2" class="edge">
<title>134426179476288&#45;&gt;134426179483392</title>
<path fill="none" stroke="black" d="M242.08,-83C250.97,-83 259.64,-83 267.54,-83"/>
<polygon fill="black" stroke="black" points="267.78,-86.5 277.78,-83 267.78,-79.5 267.78,-86.5"/>
</g>
<!-- 134426179484448 -->
<g id="node4" class="node">
<title>134426179484448</title>
<polygon fill="none" stroke="black" points="596,-128 402,-128 402,-92 596,-92 596,-128"/>
<text text-anchor="middle" x="499" y="-106.9" font-family="Times,serif" font-size="12.00">Collect customer information</text>
</g>
<!-- 134426179483392&#45;&gt;134426179484448 -->
<g id="edge3" class="edge">
<title>134426179483392&#45;&gt;134426179484448</title>
<path fill="none" stroke="black" d="M327.65,-86.04C343.86,-88.32 367.34,-91.63 391.73,-95.06"/>
<polygon fill="black" stroke="black" points="391.45,-98.55 401.84,-96.48 392.42,-91.62 391.45,-98.55"/>
</g>
<!-- 134426179475616 -->
<g id="node5" class="node">
<title>134426179475616</title>
<polygon fill="none" stroke="black" points="630,-74 368,-74 368,-38 630,-38 630,-74"/>
<text text-anchor="middle" x="499" y="-52.9" font-family="Times,serif" font-size="12.00">Address customer concerns or questions</text>
</g>
<!-- 134426179483392&#45;&gt;134426179475616 -->
<g id="edge4" class="edge">
<title>134426179483392&#45;&gt;134426179475616</title>
<path fill="none" stroke="black" d="M327.65,-79.96C336.55,-78.7 347.65,-77.14 359.88,-75.42"/>
<polygon fill="black" stroke="black" points="360.5,-78.87 369.92,-74.01 359.53,-71.94 360.5,-78.87"/>
</g>
<!-- 134426179484352 -->
<g id="node6" class="node">
<title>134426179484352</title>
<polygon fill="none" stroke="black" points="693,-101 666,-83 693,-65 720,-83 693,-101"/>
<text text-anchor="middle" x="693" y="-79.9" font-family="Times,serif" font-size="12.00">+</text>
</g>
<!-- 134426179484448&#45;&gt;134426179484352 -->
<g id="edge5" class="edge">
<title>134426179484448&#45;&gt;134426179484352</title>
<path fill="none" stroke="black" d="M596,-96.5C619.24,-93.23 642.49,-89.96 660.28,-87.46"/>
<polygon fill="black" stroke="black" points="660.93,-90.9 670.35,-86.04 659.96,-83.97 660.93,-90.9"/>
</g>
<!-- 134426179475616&#45;&gt;134426179484352 -->
<g id="edge6" class="edge">
<title>134426179475616&#45;&gt;134426179484352</title>
<path fill="none" stroke="black" d="M628.07,-74.01C639.86,-75.67 650.93,-77.22 660.43,-78.56"/>
<polygon fill="black" stroke="black" points="660.06,-82.04 670.45,-79.97 661.03,-75.11 660.06,-82.04"/>
</g>
<!-- 134426179481040 -->
<g id="node7" class="node">
<title>134426179481040</title>
<polygon fill="none" stroke="black" points="886,-101 756,-101 756,-65 886,-65 886,-101"/>
<text text-anchor="middle" x="821" y="-79.9" font-family="Times,serif" font-size="12.00">Log inquiry details</text>
</g>
<!-- 134426179484352&#45;&gt;134426179481040 -->
<g id="edge7" class="edge">
<title>134426179484352&#45;&gt;134426179481040</title>
<path fill="none" stroke="black" d="M720.11,-83C727.84,-83 736.71,-83 745.91,-83"/>
<polygon fill="black" stroke="black" points="745.98,-86.5 755.98,-83 745.98,-79.5 745.98,-86.5"/>
</g>
<!-- 134426179483152 -->
<g id="node8" class="node">
<title>134426179483152</title>
<polygon fill="none" stroke="black" points="949,-101 922,-83 949,-65 976,-83 949,-101"/>
<text text-anchor="middle" x="949" y="-79.9" font-family="Times,serif" font-size="12.00">X</text>
</g>
<!-- 134426179481040&#45;&gt;134426179483152 -->
<g id="edge8" class="edge">
<title>134426179481040&#45;&gt;134426179483152</title>
<path fill="none" stroke="black" d="M886.11,-83C894.9,-83 903.66,-83 911.71,-83"/>
<polygon fill="black" stroke="black" points="911.83,-86.5 921.83,-83 911.83,-79.5 911.83,-86.5"/>
</g>
<!-- 134426179469856 -->
<g id="node9" class="node">
<title>134426179469856</title>
<polygon fill="none" stroke="black" points="2268,-101 2241,-83 2268,-65 2295,-83 2268,-101"/>
<text text-anchor="middle" x="2268" y="-79.9" font-family="Times,serif" font-size="12.00">X</text>
</g>
<!-- 134426179483152&#45;&gt;134426179469856 -->
<g id="edge9" class="edge">
<title>134426179483152&#45;&gt;134426179469856</title>
<path fill="none" stroke="black" d="M973.2,-85.12C1037.51,-90.82 1223.54,-106 1378.5,-106 1378.5,-106 1378.5,-106 1995,-106 2082.38,-106 2184.99,-94.07 2235.57,-87.39"/>
<polygon fill="black" stroke="black" points="2236.1,-90.85 2245.54,-86.05 2235.17,-83.92 2236.1,-90.85"/>
</g>
<!-- 134426179476624 -->
<g id="node10" class="node">
<title>134426179476624</title>
<polygon fill="none" stroke="black" points="1293,-78 1012,-78 1012,-42 1293,-42 1293,-78"/>
<text text-anchor="middle" x="1152.5" y="-56.9" font-family="Times,serif" font-size="12.00">Guide customer in selecting product/service</text>
</g>
<!-- 134426179483152&#45;&gt;134426179476624 -->
<g id="edge10" class="edge">
<title>134426179483152&#45;&gt;134426179476624</title>
<path fill="none" stroke="black" d="M972.33,-80.45C980.58,-79.51 990.65,-78.36 1001.78,-77.09"/>
<polygon fill="black" stroke="black" points="1002.27,-80.56 1011.81,-75.94 1001.48,-73.6 1002.27,-80.56"/>
</g>
<!-- 134426179478064 -->
<g id="node17" class="node">
<title>134426179478064</title>
<ellipse fill="orange" stroke="black" cx="2349" cy="-83" rx="18" ry="18"/>
</g>
<!-- 134426179469856&#45;&gt;134426179478064 -->
<g id="edge12" class="edge">
<title>134426179469856&#45;&gt;134426179478064</title>
<path fill="none" stroke="black" d="M2295.31,-83C2303.42,-83 2312.37,-83 2320.56,-83"/>
<polygon fill="black" stroke="black" points="2320.75,-86.5 2330.75,-83 2320.75,-79.5 2320.75,-86.5"/>
</g>
<!-- 134426179482960 -->
<g id="node11" class="node">
<title>134426179482960</title>
<polygon fill="none" stroke="black" points="1430,-78 1329,-78 1329,-42 1430,-42 1430,-78"/>
<text text-anchor="middle" x="1379.5" y="-56.9" font-family="Times,serif" font-size="12.00">Provide quote</text>
</g>
<!-- 134426179476624&#45;&gt;134426179482960 -->
<g id="edge11" class="edge">
<title>134426179476624&#45;&gt;134426179482960</title>
<path fill="none" stroke="black" d="M1293.12,-60C1301.94,-60 1310.53,-60 1318.64,-60"/>
<polygon fill="black" stroke="black" points="1318.65,-63.5 1328.65,-60 1318.65,-56.5 1318.65,-63.5"/>
</g>
<!-- 134430768039296 -->
<g id="node12" class="node">
<title>134430768039296</title>
<polygon fill="none" stroke="black" points="1493,-78 1466,-60 1493,-42 1520,-60 1493,-78"/>
<text text-anchor="middle" x="1493" y="-56.9" font-family="Times,serif" font-size="12.00">X</text>
</g>
<!-- 134426179482960&#45;&gt;134430768039296 -->
<g id="edge13" class="edge">
<title>134426179482960&#45;&gt;134430768039296</title>
<path fill="none" stroke="black" d="M1430.05,-60C1438.72,-60 1447.6,-60 1455.82,-60"/>
<polygon fill="black" stroke="black" points="1455.82,-63.5 1465.82,-60 1455.82,-56.5 1455.82,-63.5"/>
</g>
<!-- 134430768051920 -->
<g id="node13" class="node">
<title>134430768051920</title>
<polygon fill="none" stroke="black" points="2178,-78 2151,-60 2178,-42 2205,-60 2178,-78"/>
<text text-anchor="middle" x="2178" y="-56.9" font-family="Times,serif" font-size="12.00">X</text>
</g>
<!-- 134430768039296&#45;&gt;134430768051920 -->
<g id="edge14" class="edge">
<title>134430768039296&#45;&gt;134430768051920</title>
<path fill="none" stroke="black" d="M1520.36,-60C1625.9,-60 2018.2,-60 2140.41,-60"/>
<polygon fill="black" stroke="black" points="2140.72,-63.5 2150.72,-60 2140.72,-56.5 2140.72,-63.5"/>
</g>
<!-- 134430768046832 -->
<g id="node14" class="node">
<title>134430768046832</title>
<polygon fill="none" stroke="black" points="1643,-36 1556,-36 1556,0 1643,0 1643,-36"/>
<text text-anchor="middle" x="1599.5" y="-14.9" font-family="Times,serif" font-size="12.00">Place order</text>
</g>
<!-- 134430768039296&#45;&gt;134430768046832 -->
<g id="edge15" class="edge">
<title>134430768039296&#45;&gt;134430768046832</title>
<path fill="none" stroke="black" d="M1510.33,-53.44C1520.12,-49.5 1533.18,-44.25 1546.23,-39.01"/>
<polygon fill="black" stroke="black" points="1547.72,-42.18 1555.69,-35.2 1545.11,-35.69 1547.72,-42.18"/>
</g>
<!-- 134430768051920&#45;&gt;134426179469856 -->
<g id="edge16" class="edge">
<title>134430768051920&#45;&gt;134426179469856</title>
<path fill="none" stroke="black" d="M2198.09,-64.99C2209.82,-68.06 2225.07,-72.04 2238.24,-75.48"/>
<polygon fill="black" stroke="black" points="2237.68,-78.96 2248.24,-78.1 2239.45,-72.18 2237.68,-78.96"/>
</g>
<!-- 134427580434272 -->
<g id="node15" class="node">
<title>134427580434272</title>
<polygon fill="none" stroke="black" points="1837,-36 1679,-36 1679,0 1837,0 1837,-36"/>
<text text-anchor="middle" x="1758" y="-14.9" font-family="Times,serif" font-size="12.00">Record order in system</text>
</g>
<!-- 134430768046832&#45;&gt;134427580434272 -->
<g id="edge17" class="edge">
<title>134430768046832&#45;&gt;134427580434272</title>
<path fill="none" stroke="black" d="M1643.26,-18C1651.29,-18 1659.94,-18 1668.77,-18"/>
<polygon fill="black" stroke="black" points="1668.78,-21.5 1678.78,-18 1668.78,-14.5 1668.78,-21.5"/>
</g>
<!-- 134430768052208 -->
<g id="node16" class="node">
<title>134430768052208</title>
<polygon fill="none" stroke="black" points="2115,-36 1873,-36 1873,0 2115,0 2115,-36"/>
<text text-anchor="middle" x="1994" y="-14.9" font-family="Times,serif" font-size="12.00">Send order confirmation to customer</text>
</g>
<!-- 134427580434272&#45;&gt;134430768052208 -->
<g id="edge18" class="edge">
<title>134427580434272&#45;&gt;134430768052208</title>
<path fill="none" stroke="black" d="M1837.24,-18C1845.46,-18 1853.96,-18 1862.55,-18"/>
<polygon fill="black" stroke="black" points="1862.68,-21.5 1872.68,-18 1862.68,-14.5 1862.68,-21.5"/>
</g>
<!-- 134430768052208&#45;&gt;134430768051920 -->
<g id="edge19" class="edge">
<title>134430768052208&#45;&gt;134430768051920</title>
<path fill="none" stroke="black" d="M2073.24,-36.06C2099.66,-42.15 2127.54,-48.59 2147.74,-53.25"/>
<polygon fill="black" stroke="black" points="2147.02,-56.67 2157.56,-55.51 2148.6,-49.85 2147.02,-56.67"/>
</g>
</g>
</svg>
