<?xml version="1.0" encoding="UTF-8" standalone="no"?>
<!DOCTYPE svg PUBLIC "-//W3C//DTD SVG 1.1//EN"
 "http://www.w3.org/Graphics/SVG/1.1/DTD/svg11.dtd">
<!-- Generated by graphviz version 2.43.0 (0)
 -->
<!-- Title: %3 Pages: 1 -->
<svg width="2140pt" height="98pt"
 viewBox="0.00 0.00 2140.00 98.00" xmlns="http://www.w3.org/2000/svg" xmlns:xlink="http://www.w3.org/1999/xlink">
<g id="graph0" class="graph" transform="scale(1 1) rotate(0) translate(4 94)">
<title>%3</title>
<polygon fill="white" stroke="transparent" points="-4,4 -4,-94 2136,-94 2136,4 -4,4"/>
<!-- 134427579135120 -->
<g id="node1" class="node">
<title>134427579135120</title>
<ellipse fill="green" stroke="black" cx="18" cy="-45" rx="18" ry="18"/>
</g>
<!-- 134427579134256 -->
<g id="node2" class="node">
<title>134427579134256</title>
<polygon fill="none" stroke="black" points="242,-63 72,-63 72,-27 242,-27 242,-63"/>
<text text-anchor="middle" x="157" y="-41.9" font-family="Times,serif" font-size="12.00">Receive customer inquiry</text>
</g>
<!-- 134427579135120&#45;&gt;134427579134256 -->
<g id="edge1" class="edge">
<title>134427579135120&#45;&gt;134427579134256</title>
<path fill="none" stroke="black" d="M36.07,-45C43.15,-45 51.96,-45 61.57,-45"/>
<polygon fill="black" stroke="black" points="61.83,-48.5 71.83,-45 61.83,-41.5 61.83,-48.5"/>
</g>
<!-- 134427579133584 -->
<g id="node3" class="node">
<title>134427579133584</title>
<polygon fill="none" stroke="black" points="305,-63 278,-45 305,-27 332,-45 305,-63"/>
<text text-anchor="middle" x="305" y="-41.9" font-family="Times,serif" font-size="12.00">X</text>
</g>
<!-- 134427579134256&#45;&gt;134427579133584 -->
<g id="edge2" class="edge">
<title>134427579134256&#45;&gt;134427579133584</title>
<path fill="none" stroke="black" d="M242.08,-45C250.97,-45 259.64,-45 267.54,-45"/>
<polygon fill="black" stroke="black" points="267.78,-48.5 277.78,-45 267.78,-41.5 267.78,-48.5"/>
</g>
<!-- 134427579137424 -->
<g id="node4" class="node">
<title>134427579137424</title>
<polygon fill="none" stroke="black" points="596,-90 402,-90 402,-54 596,-54 596,-90"/>
<text text-anchor="middle" x="499" y="-68.9" font-family="Times,serif" font-size="12.00">Collect customer information</text>
</g>
<!-- 134427579133584&#45;&gt;134427579137424 -->
<g id="edge3" class="edge">
<title>134427579133584&#45;&gt;134427579137424</title>
<path fill="none" stroke="black" d="M327.65,-48.04C343.86,-50.32 367.34,-53.63 391.73,-57.06"/>
<polygon fill="black" stroke="black" points="391.45,-60.55 401.84,-58.48 392.42,-53.62 391.45,-60.55"/>
</g>
<!-- 134427579122592 -->
<g id="node5" class="node">
<title>134427579122592</title>
<polygon fill="none" stroke="black" points="630,-36 368,-36 368,0 630,0 630,-36"/>
<text text-anchor="middle" x="499" y="-14.9" font-family="Times,serif" font-size="12.00">Address customer concerns or questions</text>
</g>
<!-- 134427579133584&#45;&gt;134427579122592 -->
<g id="edge4" class="edge">
<title>134427579133584&#45;&gt;134427579122592</title>
<path fill="none" stroke="black" d="M327.65,-41.96C336.55,-40.7 347.65,-39.14 359.88,-37.42"/>
<polygon fill="black" stroke="black" points="360.5,-40.87 369.92,-36.01 359.53,-33.94 360.5,-40.87"/>
</g>
<!-- 134427579132960 -->
<g id="node6" class="node">
<title>134427579132960</title>
<polygon fill="none" stroke="black" points="693,-63 666,-45 693,-27 720,-45 693,-63"/>
<text text-anchor="middle" x="693" y="-41.9" font-family="Times,serif" font-size="12.00">X</text>
</g>
<!-- 134427579137424&#45;&gt;134427579132960 -->
<g id="edge5" class="edge">
<title>134427579137424&#45;&gt;134427579132960</title>
<path fill="none" stroke="black" d="M596,-58.5C619.24,-55.23 642.49,-51.96 660.28,-49.46"/>
<polygon fill="black" stroke="black" points="660.93,-52.9 670.35,-48.04 659.96,-45.97 660.93,-52.9"/>
</g>
<!-- 134427579122592&#45;&gt;134427579132960 -->
<g id="edge6" class="edge">
<title>134427579122592&#45;&gt;134427579132960</title>
<path fill="none" stroke="black" d="M628.07,-36.01C639.86,-37.67 650.93,-39.22 660.43,-40.56"/>
<polygon fill="black" stroke="black" points="660.06,-44.04 670.45,-41.97 661.03,-37.11 660.06,-44.04"/>
</g>
<!-- 134427579134688 -->
<g id="node7" class="node">
<title>134427579134688</title>
<polygon fill="none" stroke="black" points="783,-63 756,-45 783,-27 810,-45 783,-63"/>
<text text-anchor="middle" x="783" y="-41.9" font-family="Times,serif" font-size="12.00">X</text>
</g>
<!-- 134427579132960&#45;&gt;134427579134688 -->
<g id="edge7" class="edge">
<title>134427579132960&#45;&gt;134427579134688</title>
<path fill="none" stroke="black" d="M720.4,-45C728.39,-45 737.31,-45 745.82,-45"/>
<polygon fill="black" stroke="black" points="745.92,-48.5 755.92,-45 745.92,-41.5 745.92,-48.5"/>
</g>
<!-- 134427579130080 -->
<g id="node8" class="node">
<title>134427579130080</title>
<polygon fill="none" stroke="black" points="1121,-63 1094,-45 1121,-27 1148,-45 1121,-63"/>
<text text-anchor="middle" x="1121" y="-41.9" font-family="Times,serif" font-size="12.00">X</text>
</g>
<!-- 134427579134688&#45;&gt;134427579130080 -->
<g id="edge8" class="edge">
<title>134427579134688&#45;&gt;134427579130080</title>
<path fill="none" stroke="black" d="M807.24,-46.86C818.87,-47.69 833.17,-48.59 846,-49 940.17,-52.03 963.83,-52.03 1058,-49 1067.32,-48.7 1077.42,-48.15 1086.7,-47.54"/>
<polygon fill="black" stroke="black" points="1087.02,-51.03 1096.76,-46.86 1086.54,-44.05 1087.02,-51.03"/>
</g>
<!-- 134427579123408 -->
<g id="node9" class="node">
<title>134427579123408</title>
<polygon fill="none" stroke="black" points="1058,-40 846,-40 846,-4 1058,-4 1058,-40"/>
<text text-anchor="middle" x="952" y="-18.9" font-family="Times,serif" font-size="12.00">Guide Product/Service Selection</text>
</g>
<!-- 134427579134688&#45;&gt;134427579123408 -->
<g id="edge9" class="edge">
<title>134427579134688&#45;&gt;134427579123408</title>
<path fill="none" stroke="black" d="M805.83,-41.99C814.24,-40.83 824.54,-39.42 835.73,-37.88"/>
<polygon fill="black" stroke="black" points="836.34,-41.32 845.77,-36.49 835.39,-34.39 836.34,-41.32"/>
</g>
<!-- 134427579135264 -->
<g id="node10" class="node">
<title>134427579135264</title>
<polygon fill="none" stroke="black" points="1285,-63 1184,-63 1184,-27 1285,-27 1285,-63"/>
<text text-anchor="middle" x="1234.5" y="-41.9" font-family="Times,serif" font-size="12.00">Provide quote</text>
</g>
<!-- 134427579130080&#45;&gt;134427579135264 -->
<g id="edge11" class="edge">
<title>134427579130080&#45;&gt;134427579135264</title>
<path fill="none" stroke="black" d="M1148.14,-45C1155.91,-45 1164.75,-45 1173.73,-45"/>
<polygon fill="black" stroke="black" points="1173.88,-48.5 1183.88,-45 1173.88,-41.5 1173.88,-48.5"/>
</g>
<!-- 134427579123408&#45;&gt;134427579130080 -->
<g id="edge10" class="edge">
<title>134427579123408&#45;&gt;134427579130080</title>
<path fill="none" stroke="black" d="M1058.29,-36.5C1069.03,-37.98 1079.26,-39.39 1088.18,-40.62"/>
<polygon fill="black" stroke="black" points="1087.99,-44.12 1098.38,-42.02 1088.95,-37.19 1087.99,-44.12"/>
</g>
<!-- 134427579131088 -->
<g id="node11" class="node">
<title>134427579131088</title>
<polygon fill="none" stroke="black" points="1348,-63 1321,-45 1348,-27 1375,-45 1348,-63"/>
<text text-anchor="middle" x="1348" y="-41.9" font-family="Times,serif" font-size="12.00">X</text>
</g>
<!-- 134427579135264&#45;&gt;134427579131088 -->
<g id="edge12" class="edge">
<title>134427579135264&#45;&gt;134427579131088</title>
<path fill="none" stroke="black" d="M1285.05,-45C1293.72,-45 1302.6,-45 1310.82,-45"/>
<polygon fill="black" stroke="black" points="1310.82,-48.5 1320.82,-45 1310.82,-41.5 1310.82,-48.5"/>
</g>
<!-- 134427579134784 -->
<g id="node12" class="node">
<title>134427579134784</title>
<polygon fill="none" stroke="black" points="2033,-63 2006,-45 2033,-27 2060,-45 2033,-63"/>
<text text-anchor="middle" x="2033" y="-41.9" font-family="Times,serif" font-size="12.00">X</text>
</g>
<!-- 134427579131088&#45;&gt;134427579134784 -->
<g id="edge13" class="edge">
<title>134427579131088&#45;&gt;134427579134784</title>
<path fill="none" stroke="black" d="M1372.24,-46.86C1383.87,-47.69 1398.17,-48.59 1411,-49 1659.32,-57 1721.68,-57 1970,-49 1979.32,-48.7 1989.42,-48.15 1998.7,-47.54"/>
<polygon fill="black" stroke="black" points="1999.02,-51.03 2008.76,-46.86 1998.54,-44.05 1999.02,-51.03"/>
</g>
<!-- 134427579124176 -->
<g id="node13" class="node">
<title>134427579124176</title>
<polygon fill="none" stroke="black" points="1498,-40 1411,-40 1411,-4 1498,-4 1498,-40"/>
<text text-anchor="middle" x="1454.5" y="-18.9" font-family="Times,serif" font-size="12.00">Place order</text>
</g>
<!-- 134427579131088&#45;&gt;134427579124176 -->
<g id="edge14" class="edge">
<title>134427579131088&#45;&gt;134427579124176</title>
<path fill="none" stroke="black" d="M1368.66,-40.67C1377.89,-38.64 1389.39,-36.11 1400.91,-33.57"/>
<polygon fill="black" stroke="black" points="1401.97,-36.92 1410.99,-31.36 1400.47,-30.09 1401.97,-36.92"/>
</g>
<!-- 134427579122112 -->
<g id="node16" class="node">
<title>134427579122112</title>
<ellipse fill="orange" stroke="black" cx="2114" cy="-45" rx="18" ry="18"/>
</g>
<!-- 134427579134784&#45;&gt;134427579122112 -->
<g id="edge16" class="edge">
<title>134427579134784&#45;&gt;134427579122112</title>
<path fill="none" stroke="black" d="M2060.31,-45C2068.42,-45 2077.37,-45 2085.56,-45"/>
<polygon fill="black" stroke="black" points="2085.75,-48.5 2095.75,-45 2085.75,-41.5 2085.75,-48.5"/>
</g>
<!-- 134427579134736 -->
<g id="node14" class="node">
<title>134427579134736</title>
<polygon fill="none" stroke="black" points="1692,-40 1534,-40 1534,-4 1692,-4 1692,-40"/>
<text text-anchor="middle" x="1613" y="-18.9" font-family="Times,serif" font-size="12.00">Record order in system</text>
</g>
<!-- 134427579124176&#45;&gt;134427579134736 -->
<g id="edge15" class="edge">
<title>134427579124176&#45;&gt;134427579134736</title>
<path fill="none" stroke="black" d="M1498.26,-22C1506.29,-22 1514.94,-22 1523.77,-22"/>
<polygon fill="black" stroke="black" points="1523.78,-25.5 1533.78,-22 1523.78,-18.5 1523.78,-25.5"/>
</g>
<!-- 134427580441424 -->
<g id="node15" class="node">
<title>134427580441424</title>
<polygon fill="none" stroke="black" points="1970,-40 1728,-40 1728,-4 1970,-4 1970,-40"/>
<text text-anchor="middle" x="1849" y="-18.9" font-family="Times,serif" font-size="12.00">Send order confirmation to customer</text>
</g>
<!-- 134427579134736&#45;&gt;134427580441424 -->
<g id="edge17" class="edge">
<title>134427579134736&#45;&gt;134427580441424</title>
<path fill="none" stroke="black" d="M1692.24,-22C1700.46,-22 1708.96,-22 1717.55,-22"/>
<polygon fill="black" stroke="black" points="1717.68,-25.5 1727.68,-22 1717.68,-18.5 1717.68,-25.5"/>
</g>
<!-- 134427580441424&#45;&gt;134427579134784 -->
<g id="edge18" class="edge">
<title>134427580441424&#45;&gt;134427579134784</title>
<path fill="none" stroke="black" d="M1970.13,-37.18C1980.88,-38.54 1991.03,-39.82 1999.87,-40.94"/>
<polygon fill="black" stroke="black" points="1999.61,-44.43 2009.97,-42.22 2000.49,-37.49 1999.61,-44.43"/>
</g>
</g>
</svg>
